<svg xmlns="http://www.w3.org/2000/svg" id="svg0.2506240981935517" viewBox="0 0 1024 1024"><path d="M0 0 C337.92 0 675.84 0 1024 0 C1024 337.92 1024 675.84 1024 1024 C686.08 1024 348.16 1024 0 1024 C0 686.08 0 348.16 0 0 Z " transform="translate(0,0)" style="fill: #FEFEFE;"/><path d="M0 0 C20.13 0 40.26 0 61 0 C65.95 8.58 70.9 17.16 76 26 C78.78489897 30.77512916 81.57268744 35.54769384 84.375 40.3125 C85.08148482 41.51556357 85.78786127 42.71869079 86.49414062 43.921875 C87.94327864 46.39037559 89.39285458 48.85861813 90.84277344 51.32666016 C94.04581315 56.77971674 97.24300243 62.23620249 100.44061279 67.69244385 C101.49883466 69.49801166 102.55724401 71.30346942 103.61572266 73.10888672 C106.84152022 78.61106706 110.06680134 84.11354807 113.29016113 89.61715698 C120.00887338 101.08871534 126.7293165 112.55900038 133.5 124 C138.49858651 132.44697349 143.47395986 140.90740197 148.4375 149.375 C148.79606079 149.9866098 149.15462158 150.5982196 149.52404785 151.22836304 C153.36498661 157.78106867 157.19915147 164.33762797 161.01953125 170.90234375 C161.64996338 171.98531738 162.28039551 173.06829102 162.92993164 174.18408203 C164.10350838 176.20128019 165.27595733 178.21913512 166.44702148 180.23779297 C169.2400208 185.03955251 172.08345666 189.78185839 175.12597656 194.43041992 C176 196 176 196 176 198 C176.66 198 177.32 198 178 198 C178 132.66 178 67.32 178 0 C199.45 0 220.9 0 243 0 C243 109.89 243 219.78 243 333 C223.2 333 203.4 333 183 333 C177.50755172 323.84591954 172.05527818 314.69672559 166.75 305.4375 C160.44296576 294.46888291 154.04567991 283.55743911 147.58837891 272.67675781 C140.43451151 260.62096284 133.30820415 248.54957856 126.25 236.4375 C125.38640869 234.95612549 125.38640869 234.95612549 124.50537109 233.44482422 C119.47237929 224.81112723 119.47237929 224.81112723 116.99951172 220.56494141 C108.8310979 206.54284382 100.57064086 192.58725214 92.11148071 178.73840332 C86.47885793 169.51102838 81.02191708 160.19738735 75.7109375 150.78125 C72.52329422 145.15923937 69.25642894 139.58244962 66 134 C65.67 199.67 65.34 265.34 65 333 C43.55 333 22.1 333 0 333 C0 223.11 0 113.22 0 0 Z " transform="translate(234,346)" style="fill: #547C98;"/><path d="M0 0 C76.89 0 153.78 0 233 0 C231.78568334 6.67874165 230.70014016 12.51754309 228.75 18.875 C228.30779579 20.33960306 227.86642945 21.80445929 227.42578125 23.26953125 C227.19455566 24.03346191 226.96333008 24.79739258 226.72509766 25.58447266 C225.42937714 29.90092344 224.18187712 34.23101871 222.9375 38.5625 C222.58800293 39.76398682 222.58800293 39.76398682 222.23144531 40.98974609 C219.94417045 48.95396739 218.01424868 56.9430053 216 65 C166.5 65 117 65 66 65 C66 88.76 66 112.52 66 137 C108.57 137 151.14 137 195 137 C195 157.46 195 177.92 195 199 C152.43 199 109.86 199 66 199 C66 243.88 66 288.76 66 335 C44.22 335 22.44 335 0 335 C0 224.45 0 113.9 0 0 Z " transform="translate(546,345)" style="fill: #527A97;"/><path d="M0 0 C0.33 0 0.66 0 1 0 C1 11.22 1 22.44 1 34 C2.65 34.66 4.3 35.32 6 36 C8.0905947 37.72640866 10.04644649 39.445716 12 41.3125 C12.50789062 41.78623047 13.01578125 42.25996094 13.5390625 42.74804688 C31.59396733 59.66873332 43.33728696 78.10444935 44.3671875 103.32421875 C44.96884061 124.60545057 42.79935333 142.40020329 32 161 C31.49339844 161.87269531 30.98679687 162.74539063 30.46484375 163.64453125 C15.42176749 187.57098401 -10.73150893 201.72289703 -37.578125 208.26171875 C-70.84997886 215.44023516 -116.03935595 216.76119973 -147 200 C-147.33 199.34 -147.66 198.68 -148 198 C-141.73 198 -135.46 198 -129 198 C-129 153.12 -129 108.24 -129 62 C-86.43 62 -43.86 62 0 62 C0 41.54 0 21.08 0 0 Z " transform="translate(741,482)" style="fill: #E7ECF0;"/><path d="M0 0 C11.12636653 -0.18536676 22.25236581 -0.32750968 33.37996197 -0.41449738 C38.54707565 -0.45624818 43.71313302 -0.51287338 48.87963867 -0.60351562 C53.86585166 -0.69044721 58.85104891 -0.73827494 63.8379612 -0.75901794 C65.74030364 -0.7737992 67.64259048 -0.80266539 69.54450035 -0.84584045 C72.21016826 -0.90394622 74.87164241 -0.91191313 77.5378418 -0.90820312 C78.32402893 -0.93696533 79.11021606 -0.96572754 79.92022705 -0.99536133 C82.13383484 -0.96203613 82.13383484 -0.96203613 86 0 C88.19898203 2.43028815 89.58484933 5.06216203 91 8 C91.58821533 9.0012793 92.17643066 10.00255859 92.7824707 11.03417969 C93.32476318 11.98711914 93.86705566 12.94005859 94.42578125 13.921875 C95.04912354 15.01516113 95.67246582 16.10844727 96.31469727 17.23486328 C96.98063428 18.40657394 97.64656845 19.57828623 98.3125 20.75 C99.01796681 21.98822162 99.72361837 23.22633799 100.42944336 24.46435547 C101.89316517 27.03212583 103.35610032 29.60034168 104.81835938 32.16894531 C108.22783533 38.15728683 111.64451734 44.14151088 115.0625 50.125 C115.39311432 50.70390991 115.72372864 51.28281982 116.06436157 51.87927246 C121.46894123 61.34135571 126.90690371 70.78388211 132.36010742 80.21801758 C136.22230634 86.90424422 140.05980366 93.60408516 143.8815918 100.31347656 C150.25221973 111.49732482 156.68082819 122.64471455 163.1875 133.75 C163.724888 134.66829086 163.724888 134.66829086 164.27313232 135.60513306 C165.29912946 137.3574015 166.32693468 139.10859469 167.35546875 140.859375 C167.93965576 141.85420898 168.52384277 142.84904297 169.12573242 143.87402344 C171.36748923 147.61291286 173.68949835 151.30319735 176 155 C176.33 103.85 176.66 52.7 177 0 C193.479375 -0.020625 209.95875 -0.04125 226.9375 -0.0625 C234.75489868 -0.07615601 234.75489868 -0.07615601 242.73022461 -0.09008789 C249.07336426 -0.09460449 249.07336426 -0.09460449 252.03883362 -0.09544373 C254.11879184 -0.09698361 256.19874916 -0.10050943 258.27870178 -0.10557556 C261.42141277 -0.11285039 264.56406901 -0.11390751 267.70678711 -0.11352539 C268.64002524 -0.1171235 269.57326338 -0.12072161 270.53478146 -0.12442875 C276.88597366 -0.11402634 276.88597366 -0.11402634 278 1 C278.09365006 2.7492872 278.11744438 4.50236254 278.11352539 6.25415039 C278.11344986 7.37523697 278.11337433 8.49632355 278.11329651 9.65138245 C278.10813522 10.8711528 278.10297394 12.09092316 278.09765625 13.34765625 C278.09553383 15.2100016 278.09553383 15.2100016 278.09336853 17.10997009 C278.08870591 20.41605491 278.07971497 23.72207146 278.06866455 27.02813721 C278.05844827 30.3996115 278.05387045 33.77109283 278.04882812 37.14257812 C278.03777395 43.76173775 278.02101736 50.38086493 278 57 C278.76699219 57.29648437 279.53398438 57.59296875 280.32421875 57.8984375 C283.07457175 59.03069961 285.48539389 60.41939045 288 62 C287.34 62.33 286.68 62.66 286 63 C283.69 61.68 281.38 60.36 279 59 C278.67 71.54 278.34 84.08 278 97 C277.34 97 276.68 97 276 97 C276.33 97.99 276.66 98.98 277 100 C276.91382274 102.232269 276.76077759 104.46238486 276.5625 106.6875 C276.46066406 107.86699219 276.35882813 109.04648437 276.25390625 110.26171875 C276.17011719 111.16535156 276.08632813 112.06898438 276 113 C272.66666667 111.33333333 269.33333333 109.66666667 266 108 C266 110.64 266 113.28 266 116 C271.94 115.505 271.94 115.505 278 115 C278.82635642 131.24193216 279.0885394 147.39667083 278.87890625 163.65625 C278.85450948 165.90880762 278.83067136 168.16137134 278.80735779 170.41394043 C278.74546471 176.25312435 278.67614638 182.09219562 278.60510254 187.93127441 C278.53354516 193.92548631 278.46925718 199.91977612 278.40429688 205.9140625 C278.27651237 217.60946066 278.14085735 229.30475248 278 241 C278.66 241.33 279.32 241.66 280 242 C279.67 242.66 279.34 243.32 279 244 C279.66 244 280.32 244 281 244 C281 244.66 281 245.32 281 246 C280.34 246.33 279.68 246.66 279 247 C278.67 257.89 278.34 268.78 278 280 C279.32 279.67 280.64 279.34 282 279 C280.625 280.5 280.625 280.5 279 282 C278.34 282 277.68 282 277 282 C277 303.12 277 324.24 277 346 C259.81114693 346.40108809 259.81114693 346.40108809 252.45898438 346.48828125 C247.45000714 346.54796777 242.44286514 346.6184027 237.43530273 346.75439453 C233.39562553 346.8634091 229.35791614 346.92291076 225.31688118 346.94877243 C223.77888056 346.96718909 222.24098269 347.00315895 220.703825 347.05730057 C216.0014223 347.21627397 211.58412197 347.22562098 207 346 C204.43800447 343.58738429 202.97233976 341.40622537 201.39880371 338.26989746 C200.20078649 335.82529211 200.20078649 335.82529211 197.76635742 335.09143066 C195.47901624 334.78900105 193.36627287 334.76445049 191.0625 334.875 C190.28326172 334.87242187 189.50402344 334.86984375 188.70117188 334.8671875 C186.80026566 334.8671875 184.89951751 334.92735254 183 335 C183 334.67 183 334.34 183 334 C202.8 334 222.6 334 243 334 C243 224.11 243 114.22 243 1 C221.55 1 200.1 1 178 1 C178 66.34 178 131.68 178 199 C177.34 199 176.68 199 176 199 C174.70996094 197.17773438 174.70996094 197.17773438 173.234375 194.59375 C172.68160889 193.63509033 172.12884277 192.67643066 171.55932617 191.6887207 C170.96224854 190.63644287 170.3651709 189.58416504 169.75 188.5 C168.47023058 186.27463692 167.19027782 184.04937927 165.91015625 181.82421875 C165.2567627 180.68259277 164.60336914 179.5409668 163.93017578 178.36474609 C161.04289847 173.33154903 158.11568873 168.32196821 155.1875 163.3125 C154.02602021 161.3216271 152.86456238 159.33074139 151.703125 157.33984375 C142.15913815 140.99383168 132.58817405 124.6637271 122.94628906 108.37524414 C118.13969 100.24983817 113.36958872 92.10319153 108.60064697 83.95565796 C103.3903169 75.0556148 98.14466423 66.17757865 92.875 57.3125 C86.89395561 47.24797314 81.01167066 37.13216543 75.18481445 26.9777832 C71.36078062 20.32273659 67.48349553 13.70650547 63.43579102 7.18457031 C61 3.21123481 61 3.21123481 61 1 C40.87 1 20.74 1 0 1 C0 0.67 0 0.34 0 0 Z " transform="translate(234,345)" style="fill: #E4EAEE;"/><path d="M0 0 C32.02642473 -0.93158857 32.02642473 -0.93158857 46.6875 4.5625 C48.02774473 5.02763058 49.36933514 5.48889949 50.7121582 5.9465332 C53.31850184 6.8437254 55.91321747 7.76566913 58.5 8.71777344 C61.58137448 9.84663635 64.6732331 10.92395421 67.78125 11.9765625 C81.82170656 16.80870272 97.1565824 22.33363622 104.4375 36.25 C108.37073857 44.78671511 107.91139277 54.01669997 104.8984375 62.79296875 C101.58418421 70.93450401 94.6032973 77.55609437 86.6875 81.3125 C64.78993112 89.97948874 32.07866605 91.18053624 10 82 C6.24584193 80.06505786 2.98751892 77.98751892 0 75 C-0.09492722 72.65746218 -0.12559791 70.34453896 -0.11352539 68.00170898 C-0.11367142 67.27004517 -0.11381744 66.53838135 -0.1139679 65.7845459 C-0.11326867 63.35503216 -0.10547585 60.92559417 -0.09765625 58.49609375 C-0.0957921 56.81600486 -0.09436819 55.13591543 -0.09336853 53.45582581 C-0.08954307 49.02526357 -0.07971256 44.5947339 -0.06866455 40.16418457 C-0.05845103 35.64657024 -0.05387104 31.12895066 -0.04882812 26.61132812 C-0.03809031 17.74087107 -0.02101356 8.87043824 0 0 Z " transform="translate(613,545)" style="fill: #FEFEFD;"/><path d="M0 0 C0 80.19 0 160.38 0 243 C-4.50088456 238.49911544 -4.50088456 238.49911544 -5.88671875 235.21484375 C-6.18513672 234.51939453 -6.48355469 233.82394531 -6.79101562 233.10742188 C-7.08685547 232.39134766 -7.38269531 231.67527344 -7.6875 230.9375 C-8.14866211 229.85758789 -8.14866211 229.85758789 -8.61914062 228.75585938 C-9.84683447 225.86258525 -11.00582425 222.98252724 -12 220 C-15.7372512 221.21677946 -19.3441622 222.53766488 -23 224 C-23.33 218.39 -23.66 212.78 -24 207 C-24.66 206.67 -25.32 206.34 -26 206 C-25.01 205.67 -24.02 205.34 -23 205 C-23.99 203.02 -24.98 201.04 -26 199 C-25.34 199 -24.68 199 -24 199 C-24.13857841 195.87463363 -24.28709569 192.74981783 -24.4375 189.625 C-24.47681641 188.73554687 -24.51613281 187.84609375 -24.55664062 186.9296875 C-24.59853516 186.07890625 -24.64042969 185.228125 -24.68359375 184.3515625 C-24.72025146 183.56604004 -24.75690918 182.78051758 -24.79467773 181.97119141 C-24.890891 179.92476504 -24.890891 179.92476504 -26 178 C-25.34 178 -24.68 178 -24 178 C-24 175.69 -24 173.38 -24 171 C-26.64 171 -29.28 171 -32 171 C-31.67 171.99 -31.34 172.98 -31 174 C-31.99 173.67 -32.98 173.34 -34 173 C-34 137.03 -34 101.06 -34 64 C-34.99 64.495 -34.99 64.495 -36 65 C-37.70702735 65.06996014 -39.41668003 65.08440154 -41.125 65.0625 C-42.49011719 65.04896484 -42.49011719 65.04896484 -43.8828125 65.03515625 C-44.93082031 65.01775391 -44.93082031 65.01775391 -46 65 C-46 62.36 -46 59.72 -46 57 C-41.62672827 57.67281104 -40.16086274 59.22609151 -36 62 C-36 56.72 -36 51.44 -36 46 C-35.34 46 -34.68 46 -34 46 C-34 33.13 -34 20.26 -34 7 C-31.36 8.32 -28.72 9.64 -26 11 C-22.95114363 12.10885258 -22.95114363 12.10885258 -19.8984375 13.20703125 C-16.96756251 14.43124446 -14.56630123 16.13943161 -12 18 C-12.99 18.495 -12.99 18.495 -14 19 C-17.13564285 17.55669869 -20.01764916 15.74680549 -23 14 C-23 19.61 -23 25.22 -23 31 C-21.68 31.66 -20.36 32.32 -19 33 C-19.99 33.495 -19.99 33.495 -21 34 C-21.66 33.67 -22.32 33.34 -23 33 C-22.67 39.6 -22.34 46.2 -22 53 C-20.35 52.34 -18.7 51.68 -17 51 C-15.00379834 50.32204472 -13.00461299 49.65266469 -11 49 C-11 45.7 -11 42.4 -11 39 C-11.99 38.67 -12.98 38.34 -14 38 C-13.34 37.67 -12.68 37.34 -12 37 C-11.01 37.495 -11.01 37.495 -10 38 C-10 32.06 -10 26.12 -10 20 C-9.01 20 -8.02 20 -7 20 C-6.9175 18.72125 -6.835 17.4425 -6.75 16.125 C-6.38504424 12.74379226 -4.49329665 0 0 0 Z " transform="translate(546,396)" style="fill: #F2F5F5;"/><path d="M0 0 C0.33 0 0.66 0 1 0 C1 109.89 1 219.78 1 333 C22.45 333 43.9 333 66 333 C66 267 66 201 66 133 C68.62635289 135.62635289 70.08259428 137.60814161 71.8984375 140.76953125 C72.45450684 141.73117187 73.01057617 142.6928125 73.58349609 143.68359375 C74.17469238 144.71613281 74.76588867 145.74867188 75.375 146.8125 C76.62439414 148.97561047 77.87440955 151.1383622 79.125 153.30078125 C79.76308594 154.40631348 80.40117187 155.5118457 81.05859375 156.65087891 C84.13203518 161.95287457 87.2518757 167.22716442 90.375 172.5 C90.94009277 173.45495361 91.50518555 174.40990723 92.08740234 175.39379883 C93.3909682 177.59624205 94.69513456 179.79832658 96 182 C95.34 182.33 94.68 182.66 94 183 C93.67 236.46 93.34 289.92 93 345 C69.9 345 46.8 345 23 345 C23 341.37 23 337.74 23 334 C15.41 334 7.82 334 0 334 C0 223.78 0 113.56 0 0 Z " transform="translate(233,346)" style="fill: #E5EBEF;"/><path d="M0 0 C76.89 0 153.78 0 233 0 C232.67 0.99 232.34 1.98 232 3 C232 2.34 232 1.68 232 1 C155.77 1 79.54 1 1 1 C1.061875 20.078125 1.12375 39.15625 1.1875 58.8125 C1.19418701 64.84120361 1.20087402 70.86990723 1.20776367 77.08129883 C1.2376309 82.47538617 1.2376309 82.47538617 1.27412415 87.86943054 C1.28722112 90.27593297 1.29045121 92.68250115 1.28596497 95.08903503 C1.28107857 98.73022246 1.30729018 102.36997505 1.34057617 106.01098633 C1.33195399 107.08692204 1.32333181 108.16285776 1.31444836 109.27139759 C1.35624683 111.94637174 1.41515527 114.38950791 2 117 C4.33787502 119.2929006 4.33787502 119.2929006 7 120 C6.01 120.495 6.01 120.495 5 121 C3.68 120.34 2.36 119.68 1 119 C1 146.39 1 173.78 1 202 C2.65 202.66 4.3 203.32 6 204 C7.63021117 205.00041576 9.23566888 206.04239953 10.8125 207.125 C11.60269531 207.66382813 12.39289062 208.20265625 13.20703125 208.7578125 C13.79871094 209.16773438 14.39039063 209.57765625 15 210 C15.03148275 201.85442968 15.02542561 193.71011875 14.97153378 185.56470871 C14.94768605 181.7822821 14.93673717 178.00073674 14.95532227 174.21826172 C14.97278595 170.56724112 14.95629425 166.91780319 14.91632271 163.2669754 C14.90703359 161.87476583 14.90994924 160.48241923 14.92530632 159.09026337 C15.36802634 151.6324121 15.36802634 151.6324121 12.38162231 145.23693848 C10.27678578 143.92680096 10.27678578 143.92680096 7 143 C7 142.34 7 141.68 7 141 C9.9719385 142.12451727 12.33440687 143.22293791 15 145 C15 139.72 15 134.44 15 129 C14.34 128.67 13.68 128.34 13 128 C13 127.34 13 126.68 13 126 C12.67 125.34 12.34 124.68 12 124 C12.66 124 13.32 124 14 124 C14.02696009 121.2291017 14.04681952 118.4584655 14.0625 115.6875 C14.07087891 114.90181641 14.07925781 114.11613281 14.08789062 113.30664062 C14.09111328 112.54931641 14.09433594 111.79199219 14.09765625 111.01171875 C14.10289307 110.31522217 14.10812988 109.61872559 14.11352539 108.90112305 C14.06895991 106.77502032 14.06895991 106.77502032 13 104 C13.66 104 14.32 104 15 104 C14.67 98.72 14.34 93.44 14 88 C12.02 88.495 12.02 88.495 10 89 C10.495 88.01 10.495 88.01 11 87 C11.66 87 12.32 87 13 87 C13 86.34 13 85.68 13 85 C14.65 85.66 16.3 86.32 18 87 C17.01 87.495 17.01 87.495 16 88 C16.11386459 90.77170395 16.24060778 93.54178046 16.375 96.3125 C16.4059375 97.09818359 16.436875 97.88386719 16.46875 98.69335938 C16.50742187 99.45068359 16.54609375 100.20800781 16.5859375 100.98828125 C16.63306885 102.03302612 16.63306885 102.03302612 16.68115234 103.09887695 C16.92118253 105.32532739 16.92118253 105.32532739 19 108 C18.34 108 17.68 108 17 108 C16.67 113.94 16.34 119.88 16 126 C17.65 126.66 19.3 127.32 21 128 C19 129 19 129 16 128 C14.91788897 138.33268994 14.91788897 138.33268994 18.32324219 147.63769531 C21.96438694 150.61444514 25.59516368 152.03279154 30 154 C30.33 147.73 30.66 141.46 31 135 C30.34 134.67 29.68 134.34 29 134 C29.66 134 30.32 134 31 134 C30.505 127.07 30.505 127.07 30 120 C28.02 120.495 28.02 120.495 26 121 C27.32 119.35 28.64 117.7 30 116 C29.01 115.01 28.02 114.02 27 113 C28.32 113 29.64 113 31 113 C30.88658509 110.51979503 30.75985314 108.04155031 30.625 105.5625 C30.57859375 104.50192383 30.57859375 104.50192383 30.53125 103.41992188 C30.42719371 101.60760812 30.22080108 99.80182012 30 98 C29.34 97.67 28.68 97.34 28 97 C28.33 96.34 28.66 95.68 29 95 C27.515 94.505 27.515 94.505 26 94 C26.99 93.505 26.99 93.505 28 93 C29.9453125 93.99609375 29.9453125 93.99609375 32.125 95.4375 C32.84945312 95.91058594 33.57390625 96.38367188 34.3203125 96.87109375 C34.87460937 97.24363281 35.42890625 97.61617188 36 98 C35.01 98.495 35.01 98.495 34 99 C34 104.28 34 109.56 34 115 C37.96 112.36 41.92 109.72 46 107 C45.34 106.01 44.68 105.02 44 104 C45.65 104.66 47.3 105.32 49 106 C49 148.24 49 190.48 49 234 C48.34 234 47.68 234 47 234 C46.855625 234.78375 46.71125 235.5675 46.5625 236.375 C45 239 45 239 43.0390625 239.70703125 C41.4953393 240.02244313 39.94385994 240.30239176 38.38671875 240.54296875 C35.49453466 241.01838166 35.49453466 241.01838166 31 243 C31 237.06 31 231.12 31 225 C29.68 225.33 28.36 225.66 27 226 C27.66 225.01 28.32 224.02 29 223 C24.71 220.36 20.42 217.72 16 215 C16.11339204 217.64680904 16.24012873 220.29177518 16.375 222.9375 C16.4059375 223.69224609 16.436875 224.44699219 16.46875 225.22460938 C16.5726315 227.15507395 16.77895614 229.07942081 17 231 C17.66 231.33 18.32 231.66 19 232 C18.01 232.33 17.02 232.66 16 233 C16 235.64 16 238.28 16 241 C12 242 12 242 2 242 C1.67 272.36 1.34 302.72 1 334 C22.45 334 43.9 334 66 334 C66 334.33 66 334.66 66 335 C44.22 335 22.44 335 0 335 C0 224.45 0 113.9 0 0 Z " transform="translate(546,345)" style="fill: #799BB2;"/><path d="M0 0 C11.12636653 -0.18536676 22.25236581 -0.32750968 33.37996197 -0.41449738 C38.54707565 -0.45624818 43.71313302 -0.51287338 48.87963867 -0.60351562 C53.86585166 -0.69044721 58.85104891 -0.73827494 63.8379612 -0.75901794 C65.74030364 -0.7737992 67.64259048 -0.80266539 69.54450035 -0.84584045 C72.21016826 -0.90394622 74.87164241 -0.91191313 77.5378418 -0.90820312 C78.32402893 -0.93696533 79.11021606 -0.96572754 79.92022705 -0.99536133 C82.13383484 -0.96203613 82.13383484 -0.96203613 86 0 C88.19898203 2.43028815 89.58484933 5.06216203 91 8 C91.58821533 9.0012793 92.17643066 10.00255859 92.7824707 11.03417969 C93.32476318 11.98711914 93.86705566 12.94005859 94.42578125 13.921875 C95.04912354 15.01516113 95.67246582 16.10844727 96.31469727 17.23486328 C96.98063428 18.40657394 97.64656845 19.57828623 98.3125 20.75 C99.01796681 21.98822162 99.72361837 23.22633799 100.42944336 24.46435547 C101.89316517 27.03212583 103.35610032 29.60034168 104.81835938 32.16894531 C108.22783533 38.15728683 111.64451734 44.14151088 115.0625 50.125 C115.39311432 50.70390991 115.72372864 51.28281982 116.06436157 51.87927246 C121.46894123 61.34135571 126.90690371 70.78388211 132.36010742 80.21801758 C136.22221541 86.9040868 140.05960634 93.60377952 143.88134766 100.31298828 C150.22908482 111.45660351 156.63605372 122.56292722 163.125 133.625 C163.47898865 134.22865387 163.83297729 134.83230774 164.19769287 135.45425415 C165.21688718 137.19135332 166.23733431 138.92771725 167.2578125 140.6640625 C168.20454834 142.31027588 168.20454834 142.31027588 169.17041016 143.98974609 C170.89209138 146.95587436 170.89209138 146.95587436 172.81005859 149.31103516 C179.16906661 157.76288125 177.64861531 168.06834675 177.375 178.125 C177.34485941 180.05464584 177.31749085 181.98433708 177.29296875 183.9140625 C177.22730472 188.61050831 177.12401114 193.30474736 177 198 C173.98169414 195.19268171 171.91260061 192.45594438 169.890625 188.87109375 C169.30917725 187.84999512 168.72772949 186.82889648 168.12866211 185.77685547 C167.19872437 184.12387451 167.19872437 184.12387451 166.25 182.4375 C164.90563557 180.07233783 163.55628233 177.71003331 162.20703125 175.34765625 C161.68798973 174.43693359 161.68798973 174.43693359 161.15846252 173.5078125 C157.49247826 167.08585474 153.72031888 160.72882765 149.9375 154.375 C144.36932722 145.00885176 138.84381557 135.61965911 133.36132812 126.203125 C128.73251921 118.25308031 124.0896136 110.31142295 119.4375 102.375 C119.07619995 101.75857635 118.7148999 101.14215271 118.34265137 100.50704956 C113.68234767 92.55746519 109.00645598 84.617271 104.3125 76.6875 C99.35097213 68.30528666 94.4318219 59.89907857 89.52856445 51.48266602 C85.06831432 43.82778721 80.5979324 36.17891235 76.11901855 28.53494263 C75.38485144 27.28186504 74.65087679 26.02867465 73.91711426 24.77536011 C72.88278575 23.00877552 71.84772183 21.24262371 70.8125 19.4765625 C70.16925781 18.37860352 69.52601563 17.28064453 68.86328125 16.14941406 C66.62954594 12.37383944 64.34236061 8.63247209 62.03125 4.90380859 C61 3 61 3 61 1 C40.87 1 20.74 1 0 1 C0 0.67 0 0.34 0 0 Z " transform="translate(234,345)" style="fill: #E7EDF0;"/><path d="M0 0 C33 0 33 0 34 1 C34.09365006 2.7492872 34.11744438 4.50236254 34.11352539 6.25415039 C34.11344986 7.37523697 34.11337433 8.49632355 34.11329651 9.65138245 C34.10813522 10.8711528 34.10297394 12.09092316 34.09765625 13.34765625 C34.0962413 14.58921982 34.09482635 15.83078339 34.09336853 17.10997009 C34.08870591 20.41605491 34.07971497 23.72207146 34.06866455 27.02813721 C34.05844827 30.3996115 34.05387045 33.77109283 34.04882812 37.14257812 C34.03777395 43.76173775 34.02101736 50.38086493 34 57 C33.32018066 57.33410889 32.64036133 57.66821777 31.93994141 58.01245117 C31.04452637 58.45564697 30.14911133 58.89884277 29.2265625 59.35546875 C28.34049316 59.79270264 27.45442383 60.22993652 26.54150391 60.68041992 C23.5115298 62.25361973 20.78020457 64.02459149 18 66 C19.485 65.505 19.485 65.505 21 65 C21.13517903 67.75164432 21.23415251 70.49664521 21.3125 73.25 C21.35439453 74.02730469 21.39628906 74.80460937 21.43945312 75.60546875 C21.48727455 77.84351137 21.46976923 79.80959674 21 82 C18.48046875 84.546875 18.48046875 84.546875 16 86 C18.475 85.01 18.475 85.01 21 84 C21 90.6 21 97.2 21 104 C16.85323868 104 15.68791935 103.5223055 12.25 101.5 C11.45078125 101.0359375 10.6515625 100.571875 9.828125 100.09375 C9.22484375 99.7328125 8.6215625 99.371875 8 99 C8 90 8 81 8 72 C6.515 72.495 6.515 72.495 5 73 C5.33 73.33 5.66 73.66 6 74 C6.08631874 75.34267413 6.10706473 76.68974322 6.09765625 78.03515625 C6.09282227 79.24848633 6.09282227 79.24848633 6.08789062 80.48632812 C6.07951172 81.33646484 6.07113281 82.18660156 6.0625 83.0625 C6.05798828 83.91650391 6.05347656 84.77050781 6.04882812 85.65039062 C6.03700373 87.76695663 6.01906769 89.88348685 6 92 C4.02 92.99 2.04 93.98 0 95 C0 63.65 0 32.3 0 0 Z " transform="translate(478,345)" style="fill: #E8EDF1;"/><path d="M0 0 C0.33 0 0.66 0 1 0 C1.5878125 1.8871875 1.5878125 1.8871875 2.1875 3.8125 C3.37615332 7.41210108 4.79579336 10.77234483 6.4375 14.1875 C12.56678568 27.46146507 15.59708656 42.37137922 15 57 C6.02566252 57.85037612 -2.92843792 58.28939616 -11.9375 58.5625 C-12.94274216 58.59426834 -12.94274216 58.59426834 -13.96829224 58.62667847 C-25.64710177 58.99342575 -37.31576369 59.11723314 -49 59 C-49.07476563 58.11699219 -49.14953125 57.23398437 -49.2265625 56.32421875 C-50.61875031 43.61709276 -54.71055316 36.67102132 -63 27 C-44.19 27 -25.38 27 -6 27 C-5.67 24.36 -5.34 21.72 -5 19 C-4.72472883 17.68436573 -4.42251492 16.37313736 -4.0625 15.078125 C-3.35146996 12.5163256 -2.64282002 9.95398954 -1.9375 7.390625 C-1.628125 6.27171875 -1.31875 5.1528125 -1 4 C-0.66068206 2.6681771 -0.32380126 1.33568021 0 0 Z " transform="translate(768,383)" style="fill: #E9EEF2;"/><path d="M0 0 C0 11.55 0 23.1 0 35 C-0.66 35 -1.32 35 -2 35 C-1.34 35.33 -0.68 35.66 0 36 C0 42.6 0 49.2 0 56 C-0.66 56 -1.32 56 -2 56 C-1.34 56.33 -0.68 56.66 0 57 C0 63.6 0 70.2 0 77 C-0.99 77 -1.98 77 -3 77 C-2.01 77.66 -1.02 78.32 0 79 C0.34057617 80.87939453 0.34057617 80.87939453 0.29296875 83.1328125 C0.28330078 83.93847656 0.27363281 84.74414062 0.26367188 85.57421875 C0.23853516 86.41597656 0.21339844 87.25773438 0.1875 88.125 C0.17396484 88.97449219 0.16042969 89.82398438 0.14648438 90.69921875 C0.11108219 92.79974837 0.05727401 94.89995293 0 97 C-0.66 97 -1.32 97 -2 97 C-1.34 97.33 -0.68 97.66 0 98 C0 106.25 0 114.5 0 123 C-2.64 121.68 -5.28 120.36 -8 119 C-8.75519424 118.62748611 -9.51038849 118.25497223 -10.28846741 117.87117004 C-13.06012773 116.22842777 -14.71094535 115.04024952 -15.5944519 111.86068726 C-15.81251747 109.173472 -15.78750992 106.58073268 -15.68359375 103.88671875 C-15.67368912 102.91716751 -15.66378448 101.94761627 -15.65357971 100.94868469 C-15.61447659 97.8600668 -15.52666298 94.77503843 -15.4375 91.6875 C-15.40238084 89.59054622 -15.37044289 87.49353657 -15.34179688 85.39648438 C-15.2647276 80.26294551 -15.14397292 75.13208069 -15 70 C-14.01 70.33 -13.02 70.66 -12 71 C-12.99 70.34 -13.98 69.68 -15 69 C-15.34057617 66.93701172 -15.34057617 66.93701172 -15.29296875 64.4296875 C-15.28330078 63.53378906 -15.27363281 62.63789062 -15.26367188 61.71484375 C-15.23853516 60.77769531 -15.21339844 59.84054687 -15.1875 58.875 C-15.17396484 57.93011719 -15.16042969 56.98523438 -15.14648438 56.01171875 C-15.11106306 53.67391221 -15.06167271 51.33723763 -15 49 C-13.68 49.33 -12.36 49.66 -11 50 C-11.65484375 49.70480469 -12.3096875 49.40960938 -12.984375 49.10546875 C-15.8070507 46.15697611 -15.41178824 43.94226426 -15.3515625 39.98242188 C-15.31804688 39.10134766 -15.28453125 38.22027344 -15.25 37.3125 C-15.23195313 36.41982422 -15.21390625 35.52714844 -15.1953125 34.60742188 C-15.14817759 32.40386496 -15.08240657 30.20247399 -15 28 C-14.34 28 -13.68 28 -13 28 C-13.66 27.67 -14.32 27.34 -15 27 C-15 20.73 -15 14.46 -15 8 C-13.68 8.33 -12.36 8.66 -11 9 C-11.66 8.34 -12.32 7.68 -13 7 C-11.21190303 5.82786955 -9.41940875 4.66244474 -7.625 3.5 C-6.62726562 2.8503125 -5.62953125 2.200625 -4.6015625 1.53125 C-2 0 -2 0 0 0 Z " transform="translate(594,454)" style="fill: #517996;"/><path d="M0 0 C0 24.09 0 48.18 0 73 C-0.33 73 -0.66 73 -1 73 C-1.33 71.35 -1.66 69.7 -2 68 C-4.97 68.99 -4.97 68.99 -8 70 C-8 74.95 -8 79.9 -8 85 C-8.33 85 -8.66 85 -9 85 C-9.495 76.09 -9.495 76.09 -10 67 C-14.29 67 -18.58 67 -23 67 C-23 68.65 -23 70.3 -23 72 C-23.33 72 -23.66 72 -24 72 C-24 70.35 -24 68.7 -24 67 C-27.465 67.495 -27.465 67.495 -31 68 C-29.35 69.32 -27.7 70.64 -26 72 C-26.99 72.99 -26.99 72.99 -28 74 C-28 73.34 -28 72.68 -28 72 C-28.61875 71.71125 -29.2375 71.4225 -29.875 71.125 C-32 70 -32 70 -34 68 C-34 66.68 -34 65.36 -34 64 C-34.99 64.495 -34.99 64.495 -36 65 C-37.70702735 65.06996014 -39.41668003 65.08440154 -41.125 65.0625 C-42.49011719 65.04896484 -42.49011719 65.04896484 -43.8828125 65.03515625 C-44.93082031 65.01775391 -44.93082031 65.01775391 -46 65 C-46 62.36 -46 59.72 -46 57 C-41.62672827 57.67281104 -40.16086274 59.22609151 -36 62 C-36 56.72 -36 51.44 -36 46 C-35.34 46 -34.68 46 -34 46 C-34 33.13 -34 20.26 -34 7 C-31.36 8.32 -28.72 9.64 -26 11 C-22.95114363 12.10885258 -22.95114363 12.10885258 -19.8984375 13.20703125 C-16.96756251 14.43124446 -14.56630123 16.13943161 -12 18 C-12.99 18.495 -12.99 18.495 -14 19 C-17.13564285 17.55669869 -20.01764916 15.74680549 -23 14 C-23 19.61 -23 25.22 -23 31 C-21.68 31.66 -20.36 32.32 -19 33 C-19.99 33.495 -19.99 33.495 -21 34 C-21.66 33.67 -22.32 33.34 -23 33 C-22.67 39.6 -22.34 46.2 -22 53 C-20.35 52.34 -18.7 51.68 -17 51 C-15.00379834 50.32204472 -13.00461299 49.65266469 -11 49 C-11 45.7 -11 42.4 -11 39 C-11.99 38.67 -12.98 38.34 -14 38 C-13.34 37.67 -12.68 37.34 -12 37 C-11.01 37.495 -11.01 37.495 -10 38 C-10 32.06 -10 26.12 -10 20 C-9.01 20 -8.02 20 -7 20 C-6.9175 18.72125 -6.835 17.4425 -6.75 16.125 C-6.38504424 12.74379226 -4.49329665 0 0 0 Z " transform="translate(546,396)" style="fill: #E4E9EA;"/><path d="M0 0 C22.11 0 44.22 0 67 0 C67.33 31.02 67.66 62.04 68 94 C69.65 93.67 71.3 93.34 73 93 C72.979375 93.804375 72.95875 94.60875 72.9375 95.4375 C72.70366379 97.93354885 72.70366379 97.93354885 74 99 C73.96524061 100.56830593 73.86875445 102.13533063 73.74609375 103.69921875 C72.59903752 114.27290298 72.59903752 114.27290298 76.08203125 123.72265625 C78.71297103 125.22880186 81.09133137 126.17147015 84 127 C85.98 127.99 85.98 127.99 88 129 C88 141.87 88 154.74 88 168 C86.02 167.34 84.04 166.68 82 166 C81.67 166.66 81.34 167.32 81 168 C80.34 168 79.68 168 79 168 C79.66 169.32 80.32 170.64 81 172 C77.04 173.98 77.04 173.98 73 176 C73 171.05 73 166.1 73 161 C72.01 160.67 71.02 160.34 70 160 C70.66 159.67 71.32 159.34 72 159 C72.66 159.33 73.32 159.66 74 160 C73.82597656 159.30519531 73.65195312 158.61039063 73.47265625 157.89453125 C72.94667367 154.67343131 73.11672345 151.93090738 73.4375 148.6875 C73.53933594 147.61886719 73.64117187 146.55023438 73.74609375 145.44921875 C73.87177734 144.23685547 73.87177734 144.23685547 74 143 C73.195625 142.690625 72.39125 142.38125 71.5625 142.0625 C69 141 69 141 68 140 C67.97666171 155.74189671 67.95901624 171.48378877 67.94818783 187.22569847 C67.94302685 194.53458611 67.93598792 201.843463 67.92456055 209.15234375 C67.91460766 215.52117438 67.90814513 221.88999724 67.90591151 228.25883543 C67.90460543 231.63251115 67.90152606 235.00616462 67.89426994 238.37983322 C67.88705504 242.14174491 67.88600925 245.90360989 67.88647461 249.66552734 C67.8810817 251.35190056 67.8810817 251.35190056 67.87557983 253.07234192 C67.87764183 254.60363487 67.87764183 254.60363487 67.87974548 256.16586304 C67.87882369 257.05631506 67.8779019 257.94676708 67.87695217 258.8642025 C67.86197831 261.0531472 67.86197831 261.0531472 69 263 C68.34 263 67.68 263 67 263 C67 286.43 67 309.86 67 334 C66.67 334 66.34 334 66 334 C66 224.11 66 114.22 66 1 C44.55 1 23.1 1 1 1 C1 66.34 1 131.68 1 199 C0.34 198.67 -0.32 198.34 -1 198 C-0.67 132.66 -0.34 67.32 0 0 Z " transform="translate(411,345)" style="fill: #BBCCD6;"/><path d="M0 0 C0 5.28 0 10.56 0 16 C-5 14 -5 14 -8 12 C-8 12.66 -8 13.32 -8 14 C-6.8553125 14.433125 -6.8553125 14.433125 -5.6875 14.875 C-3 16 -3 16 0 18 C0.36076355 20.63223267 0.36076355 20.63223267 0.34057617 24.01025391 C0.34034958 25.27141022 0.34012299 26.53256653 0.33988953 27.8319397 C0.32456844 29.21348421 0.30892044 30.59502513 0.29296875 31.9765625 C0.28737433 33.38617503 0.2831035 34.79579338 0.28010559 36.20541382 C0.26864454 39.91768464 0.23916704 43.629604 0.20599365 47.34173584 C0.1753196 51.12881719 0.16160599 54.91595526 0.14648438 58.703125 C0.11429811 66.135577 0.0630871 73.56773928 0 81 C-10.62828693 76.84126507 -10.62828693 76.84126507 -14 73 C-15.37039293 68.11560821 -15.29359886 63.25805533 -15.23046875 58.22265625 C-15.23908191 56.76824797 -15.25021623 55.31385264 -15.26374817 53.85948181 C-15.28149052 50.81667492 -15.26634266 47.77624648 -15.22827148 44.73364258 C-15.18260874 40.84681793 -15.22246055 36.96639558 -15.28762341 33.08004093 C-15.32779973 30.07774427 -15.32043046 27.0769566 -15.29921913 24.07452202 C-15.2950847 22.6428612 -15.30590339 21.21107153 -15.33238792 19.77964973 C-15.49981313 8.71081819 -15.49981313 8.71081819 -11.82778931 4.52218628 C-7.70076215 1.48882108 -5.19118967 0 0 0 Z " transform="translate(561,474)" style="fill: #58809D;"/><path d="M0 0 C2.475 0.99 2.475 0.99 5 2 C5.88300781 2.26554687 6.76601563 2.53109375 7.67578125 2.8046875 C11.02523817 4.1643189 12.73024118 5.13794221 15 8 C16.34021046 14.54602255 15.53277633 21.39357352 15 28 C15 28.66 15 29.32 15 30 C15 36 15 42 15 48 C9.25 46.125 9.25 46.125 7 45 C10.11438163 46.2512827 12.61867478 47.61035295 15 50 C16.01412645 53.8022241 15.75960524 57.41093285 15.5 61.3125 C15.46390625 62.33923828 15.4278125 63.36597656 15.390625 64.42382812 C15.29651459 66.95304545 15.16524592 69.4745974 15 72 C12.76893907 70.7702431 10.5439618 69.53390609 8.33251953 68.26904297 C5.94513049 66.89852521 5.94513049 66.89852521 2.9921875 65.8828125 C-0.04703851 63.01044596 0.29508668 60.01780691 0.15625 55.96484375 C0.1459375 54.94519531 0.135625 53.92554688 0.125 52.875 C0.09148438 51.84761719 0.05796875 50.82023438 0.0234375 49.76171875 C-0.11754915 44.42537402 -0.11754915 44.42537402 0 42 C0.495 41.505 0.495 41.505 1 41 C1.07446615 39.59556848 1.0832991 38.18750051 1.0625 36.78125 C1.05476562 35.93175781 1.04703125 35.08226562 1.0390625 34.20703125 C1.01972656 32.86705078 1.01972656 32.86705078 1 31.5 C0.97459803 29.73964333 0.95352853 27.97921697 0.9375 26.21875 C0.92589844 25.43435547 0.91429687 24.64996094 0.90234375 23.84179688 C1 22 1 22 2 21 C1.34 20.67 0.68 20.34 0 20 C0 13.4 0 6.8 0 0 Z " transform="translate(562,493)" style="fill: #57819F;"/><path d="M0 0 C0.33 0 0.66 0 1 0 C2.14356355 13.52526996 2.04525139 26.9688279 1.87890625 40.53125 C1.85454977 42.8625029 1.83070919 45.19376123 1.80735779 47.52502441 C1.74506598 53.60762823 1.67584921 59.69013348 1.60510254 65.77264404 C1.53391744 72.00072815 1.46940266 78.22888115 1.40429688 84.45703125 C1.27599422 96.63809657 1.14036269 108.81906809 1 121 C0.34 121 -0.32 121 -1 121 C-2.7143618 119.04072937 -4.38405168 117.04119788 -6 115 C-4.35 115.66 -2.7 116.32 -1 117 C-1.33 111.06 -1.66 105.12 -2 99 C-4.97 99 -7.94 99 -11 99 C-11 101.31 -11 103.62 -11 106 C-10.34 106.33 -9.68 106.66 -9 107 C-9.16226074 107.64042236 -9.32452148 108.28084473 -9.49169922 108.94067383 C-10.16017225 112.96403386 -10.14285071 116.87787621 -10.1328125 120.94921875 C-10.13376923 121.80304642 -10.13472595 122.65687408 -10.13571167 123.53657532 C-10.13639015 125.33436151 -10.1345591 127.1321502 -10.13037109 128.92993164 C-10.12499831 131.68836922 -10.13033747 134.44664545 -10.13671875 137.20507812 C-10.1360583 138.95312536 -10.13477782 140.70117249 -10.1328125 142.44921875 C-10.13483673 143.2762883 -10.13686096 144.10335785 -10.13894653 144.95549011 C-10.23099896 149.11055718 -10.23099896 149.11055718 -9 153 C-10.65 152.34 -12.3 151.68 -14 151 C-13.34 150.67 -12.68 150.34 -12 150 C-12.06009392 147.24769852 -12.14712621 144.5007556 -12.25 141.75 C-12.26417969 140.97269531 -12.27835937 140.19539062 -12.29296875 139.39453125 C-12.49349071 134.53383509 -12.49349071 134.53383509 -15.046875 130.453125 C-15.69140625 129.97359375 -16.3359375 129.4940625 -17 129 C-15.68 129.33 -14.36 129.66 -13 130 C-13 123.73 -13 117.46 -13 111 C-16.19239645 111.79809911 -18.39297664 112.58637126 -21.25 114.0625 C-22.30960937 114.60583984 -22.30960937 114.60583984 -23.390625 115.16015625 C-23.92171875 115.43730469 -24.4528125 115.71445312 -25 116 C-23.5361389 111.60841671 -21.02168662 111.12052567 -17 109 C-17 108.34 -17 107.68 -17 107 C-15.68 107 -14.36 107 -13 107 C-12.67 104.36 -12.34 101.72 -12 99 C-14.64 99 -17.28 99 -20 99 C-20 98.67 -20 98.34 -20 98 C-17.36 98 -14.72 98 -12 98 C-12.1135629 96.35333797 -12.24117381 94.70763918 -12.375 93.0625 C-12.44460938 92.14597656 -12.51421875 91.22945312 -12.5859375 90.28515625 C-12.72257812 89.53105469 -12.85921875 88.77695312 -13 88 C-13.66 87.67 -14.32 87.34 -15 87 C-14.505 86.01 -14.505 86.01 -14 85 C-13.34 85 -12.68 85 -12 85 C-12.33 81.37 -12.66 77.74 -13 74 C-17.47909623 71.58181435 -17.47909623 71.58181435 -20.01953125 72.6796875 C-21.6796875 73.78645833 -23.33984375 74.89322917 -25 76 C-25 74.02 -25 72.04 -25 70 C-24.01 69.505 -24.01 69.505 -23 69 C-22.67 68.01 -22.34 67.02 -22 66 C-19.59326829 62.83324775 -16.73918037 62.08020766 -13 61 C-13.14095064 59.3745692 -13.28792087 57.74965949 -13.4375 56.125 C-13.51871094 55.22007812 -13.59992188 54.31515625 -13.68359375 53.3828125 C-13.86989285 50.98889139 -13.86989285 50.98889139 -15 49 C-14.01 49.33 -13.02 49.66 -12 50 C-10.67713754 54.96073422 -10.91106803 59.91111512 -11 65 C-10.34 65.33 -9.68 65.66 -9 66 C-9 66.66 -9 67.32 -9 68 C-8.34 68.99 -7.68 69.98 -7 71 C-8.485 70.505 -8.485 70.505 -10 70 C-10.33 74.29 -10.66 78.58 -11 83 C-9.35 82.01 -7.7 81.02 -6 80 C-5.34 80.33 -4.68 80.66 -4 81 C-5.65 82.65 -7.3 84.3 -9 86 C-7.68 86.66 -6.36 87.32 -5 88 C-6.65 88 -8.3 88 -10 88 C-10 88.66 -10 89.32 -10 90 C-9.1646875 90.37125 -9.1646875 90.37125 -8.3125 90.75 C-5.60138773 92.21546609 -3.38376662 94.05503619 -1 96 C-0.9456035 93.62468606 -0.90614136 91.25064117 -0.875 88.875 C-0.85824219 88.20984375 -0.84148437 87.5446875 -0.82421875 86.859375 C-0.77357055 81.69325894 -1.69762753 77.60474494 -4 73 C-3.34 73 -2.68 73 -2 73 C-1.67 69.04 -1.34 65.08 -1 61 C-2.65 61.66 -4.3 62.32 -6 63 C-5.505 62.38125 -5.01 61.7625 -4.5 61.125 C-2.80777227 59.16119096 -2.80777227 59.16119096 -3 57 C-4.32 57 -5.64 57 -7 57 C-7.66 55.68 -8.32 54.36 -9 53 C-7.68 53 -6.36 53 -5 53 C-7.475 50.525 -7.475 50.525 -10 48 C-6.89656201 49.20689255 -3.98806107 50.50596946 -1 52 C-1 47.71 -1 43.42 -1 39 C-1.66 38.67 -2.32 38.34 -3 38 C-2.34 38 -1.68 38 -1 38 C-1.185625 37.030625 -1.37125 36.06125 -1.5625 35.0625 C-1.706875 34.051875 -1.85125 33.04125 -2 32 C-1.67 31.67 -1.34 31.34 -1 31 C-1.03789637 28.83116183 -1.15494515 26.66343976 -1.3125 24.5 C-1.39113281 23.3140625 -1.46976562 22.128125 -1.55078125 20.90625 C-1.77314453 19.46765625 -1.77314453 19.46765625 -2 18 C-2.66 17.67 -3.32 17.34 -4 17 C-3.01 16.67 -2.02 16.34 -1 16 C-1 15.34 -1 14.68 -1 14 C-2.32 13.34 -3.64 12.68 -5 12 C-2 12 -2 12 0 13 C0 8.71 0 4.42 0 0 Z " transform="translate(511,468)" style="fill: #D1D9DE;"/><path d="M0 0 C1.75496922 0.7382974 3.50380532 1.49118242 5.25 2.25 C6.22453125 2.66765625 7.1990625 3.0853125 8.203125 3.515625 C11.1138249 5.06040987 12.95446589 6.42178721 15 9 C15.45410156 11.10644531 15.45410156 11.10644531 15.390625 13.328125 C15.37773438 14.12734375 15.36484375 14.9265625 15.3515625 15.75 C15.31804688 16.575 15.28453125 17.4 15.25 18.25 C15.23195313 19.09046875 15.21390625 19.9309375 15.1953125 20.796875 C15.14830798 22.86507395 15.07656724 24.93268441 15 27 C14.34 27 13.68 27 13 27 C13.66 27.33 14.32 27.66 15 28 C15 36.25 15 44.5 15 53 C12.36 51.68 9.72 50.36 7 49 C6.24480576 48.62748611 5.48961151 48.25497223 4.71153259 47.87117004 C1.93987227 46.22842777 0.28905465 45.04024952 -0.5944519 41.86068726 C-0.81251747 39.173472 -0.78750992 36.58073268 -0.68359375 33.88671875 C-0.67368912 32.91716751 -0.66378448 31.94761627 -0.65357971 30.94868469 C-0.61447659 27.8600668 -0.52666298 24.77503843 -0.4375 21.6875 C-0.40238084 19.59054622 -0.37044289 17.49353657 -0.34179688 15.39648438 C-0.2647276 10.26294551 -0.14397292 5.13208069 0 0 Z " transform="translate(579,524)" style="fill: #56809E;"/><path d="M0 0 C0 24.09 0 48.18 0 73 C-0.33 73 -0.66 73 -1 73 C-1.33 71.35 -1.66 69.7 -2 68 C-4.97 68.99 -4.97 68.99 -8 70 C-8 74.95 -8 79.9 -8 85 C-8.33 85 -8.66 85 -9 85 C-10.33257403 69.25512528 -10.33257403 69.25512528 -9 62 C-10.65 61.34 -12.3 60.68 -14 60 C-13.01 59.505 -13.01 59.505 -12 59 C-11.34 59.33 -10.68 59.66 -10 60 C-10 56.7 -10 53.4 -10 50 C-10.94875 50.515625 -11.8975 51.03125 -12.875 51.5625 C-13.90625 52.036875 -14.9375 52.51125 -16 53 C-16.66 52.67 -17.32 52.34 -18 52 C-13.25 49 -13.25 49 -11 49 C-11 45.7 -11 42.4 -11 39 C-11.99 38.67 -12.98 38.34 -14 38 C-13.01 37.505 -13.01 37.505 -12 37 C-11.34 37.33 -10.68 37.66 -10 38 C-10 32.06 -10 26.12 -10 20 C-9.01 20 -8.02 20 -7 20 C-6.9175 18.72125 -6.835 17.4425 -6.75 16.125 C-6.38504424 12.74379226 -4.49329665 0 0 0 Z " transform="translate(546,396)" style="fill: #DFE8EC;"/><path d="M0 0 C1.98 0.66 3.96 1.32 6 2 C6.84304688 2.27714844 7.68609375 2.55429687 8.5546875 2.83984375 C11.56680021 4.26476576 13.04916251 5.25012668 15 8 C16.16598153 14.23992315 15.50391436 20.71662338 15 27 C14.34 27 13.68 27 13 27 C13.66 27.99 14.32 28.98 15 30 C15.22705078 32.0847168 15.22705078 32.0847168 15.1953125 34.44921875 C15.18564453 35.72055664 15.18564453 35.72055664 15.17578125 37.01757812 C15.15902344 37.89865234 15.14226562 38.77972656 15.125 39.6875 C15.11597656 40.58017578 15.10695313 41.47285156 15.09765625 42.39257812 C15.07409748 44.59532314 15.04120329 46.79752588 15 49 C13.06182687 47.87616008 11.12448482 46.75088679 9.1875 45.625 C8.10855469 44.99851562 7.02960938 44.37203125 5.91796875 43.7265625 C3.91168907 42.53944654 1.93965941 41.29310627 0 40 C0 38 0 38 1 37 C0.67 37 0.34 37 0 37 C0 31.39 0 25.78 0 20 C0.66 20 1.32 20 2 20 C1.34 19.67 0.68 19.34 0 19 C0 12.73 0 6.46 0 0 Z " transform="translate(445,528)" style="fill: #517997;"/><path d="M0 0 C0.33 0 0.66 0 1 0 C0.99032196 0.63813629 0.98064392 1.27627258 0.97067261 1.93374634 C0.87962161 8.58549855 0.85859408 15.2348789 0.87792969 21.88720703 C0.87598492 24.36840552 0.85628077 26.84965696 0.81835938 29.33056641 C0.7668734 32.90169072 0.77960532 36.46775534 0.8046875 40.0390625 C0.77494843 41.14553131 0.74520935 42.25200012 0.71456909 43.39199829 C0.77317496 46.55760349 0.92867038 49.01748767 2 52 C5.01182181 54.80628864 8.23546267 56.40010318 12 58 C12.82059906 58.38588791 13.64119812 58.77177582 14.48666382 59.1693573 C16.69624829 60.20260672 18.92918766 61.14095402 21.1875 62.0625 C21.99614502 62.39830078 22.80479004 62.73410156 23.63793945 63.08007812 C30.97848129 66.08345285 38.42764942 68.64566679 46 71 C46 71.33 46 71.66 46 72 C30.82 72 15.64 72 0 72 C0 48.24 0 24.48 0 0 Z " transform="translate(612,410)" style="fill: #DDE6EA;"/><path d="M0 0 C3.96 0 7.92 0 12 0 C11 4 11 4 10 5 C10.66 5 11.32 5 12 5 C12 8.3 12 11.6 12 15 C10.68 15.33 9.36 15.66 8 16 C7.01 16.33 6.02 16.66 5 17 C5.165 17.680625 5.33 18.36125 5.5 19.0625 C6.06978754 22.41000179 6 25.61052415 6 29 C6.33 29.33 6.66 29.66 7 30 C7.40080066 31.90746008 7.74587161 33.82677573 8.0625 35.75 C8.23910156 36.79671875 8.41570313 37.8434375 8.59765625 38.921875 C8.95607109 41.66392252 9.07665751 44.24032952 9 47 C2.25 51 2.25 51 0 51 C0 37.66666667 0 24.33333333 0 11 C0.66 10.67 1.32 10.34 2 10 C1.34 9.67 0.68 9.34 0 9 C0 6.03 0 3.06 0 0 Z " transform="translate(524,567)" style="fill: #FCFDFC;"/><path d="M0 0 C3.99500618 1.3697164 6.80009492 3.25722422 10 6 C8.68 6.33 7.36 6.66 6 7 C8.1385485 9.1385485 9.13275314 9.42655063 12 10 C11.34 11.32 10.68 12.64 10 14 C10.99 14 11.98 14 13 14 C13.02685938 16.14576637 13.04633088 18.29162645 13.0625 20.4375 C13.07410156 21.63246094 13.08570313 22.82742188 13.09765625 24.05859375 C13 27 13 27 12 28 C12.32742188 28.81726563 12.65484375 29.63453125 12.9921875 30.4765625 C14.16951093 34.59263124 14.22478162 38.13044334 14.125 42.375 C14.11597656 43.11105469 14.10695313 43.84710937 14.09765625 44.60546875 C14.07430144 46.4037888 14.03843836 48.20193911 14 50 C13.44570313 49.57847656 12.89140625 49.15695312 12.3203125 48.72265625 C11.59585937 48.17480469 10.87140625 47.62695312 10.125 47.0625 C9.40570313 46.51722656 8.68640625 45.97195313 7.9453125 45.41015625 C6.05642921 43.96035376 6.05642921 43.96035376 4 43 C4.4793247 38.68607774 5.7457985 36.83430453 9 34 C7.02 34.66 5.04 35.32 3 36 C3 31.38 3 26.76 3 22 C3.66 22 4.32 22 5 22 C4.34 21.34 3.68 20.68 3 20 C3 19.34 3 18.68 3 18 C2.73002248 15.49552772 2.43796703 12.99906512 2.125 10.5 C2.04636719 9.81035156 1.96773438 9.12070312 1.88671875 8.41015625 C1.43669314 4.26390833 1.43669314 4.26390833 -1 1 C-0.67 0.67 -0.34 0.34 0 0 Z " transform="translate(497,515)" style="fill: #E1E9ED;"/><path d="M0 0 C0.66 0.99 1.32 1.98 2 3 C1.34 3 0.68 3 0 3 C-0.33 8.28 -0.66 13.56 -1 19 C0.32 18.67 1.64 18.34 3 18 C2.67 18.66 2.34 19.32 2 20 C1.34 20 0.68 20 0 20 C0 20.66 0 21.32 0 22 C1.2065625 22.433125 1.2065625 22.433125 2.4375 22.875 C5 24 5 24 6 26 C1.25 24.125 1.25 24.125 -1 23 C-0.67 28.28 -0.34 33.56 0 39 C1.98 38.505 1.98 38.505 4 38 C2.02 40.475 2.02 40.475 0 43 C0.721875 43.268125 1.44375 43.53625 2.1875 43.8125 C4.97590126 44.98982498 7.44095724 46.39145884 10 48 C9.01 48.495 9.01 48.495 8 49 C3.545 46.525 3.545 46.525 -1 44 C-0.67 70.4 -0.34 96.8 0 124 C1.98 123.505 1.98 123.505 4 123 C3.01 124.32 2.02 125.64 1 127 C2.76825142 128.14981374 4.53969521 129.29471922 6.3125 130.4375 C7.29863281 131.07558594 8.28476562 131.71367188 9.30078125 132.37109375 C11.95276993 134.10615606 11.95276993 134.10615606 15 135 C15 140.28 15 145.56 15 151 C14.67 151 14.34 151 14 151 C14 147.04 14 143.08 14 139 C13.34 138.67 12.68 138.34 12 138 C12.33 137.34 12.66 136.68 13 136 C12.01 135.6596875 12.01 135.6596875 11 135.3125 C7.07265467 133.59428642 3.58739822 131.33225393 0 129 C-0.02712153 130.916588 -0.04645097 132.8332873 -0.0625 134.75 C-0.07410156 135.81734375 -0.08570313 136.8846875 -0.09765625 137.984375 C-0.01454043 140.55099163 0.10915353 142.60199817 1 145 C1.66 145.33 2.32 145.66 3 146 C2.01 146.99 2.01 146.99 1 148 C2.98 149.32 4.96 150.64 7 152 C6.34 152.33 5.68 152.66 5 153 C3.35 152.01 1.7 151.02 0 150 C-0.33 155.28 -0.66 160.56 -1 166 C-0.34 166 0.32 166 1 166 C1.33 166.99 1.66 167.98 2 169 C0.35 168.34 -1.3 167.68 -3 167 C-3.12368859 153.95772483 -2.82461396 141.01712039 -2 128 C-2.66 127.67 -3.32 127.34 -4 127 C-5.03145371 125.69084721 -6.03542166 124.35917857 -7 123 C-5.68 123.33 -4.36 123.66 -3 124 C-1.60226477 113.323708 -1.60226477 113.323708 -4.78125 103.69140625 C-6.8454071 102.46672149 -8.68277886 101.6103395 -11 101 C-10.01 100.505 -10.01 100.505 -9 100 C-6.5249829 101.11431765 -4.32116581 102.58150978 -2 104 C-2.08088175 100.89476646 -2.1937189 97.79149667 -2.3125 94.6875 C-2.33505859 93.80642578 -2.35761719 92.92535156 -2.38085938 92.01757812 C-2.41630859 91.17001953 -2.45175781 90.32246094 -2.48828125 89.44921875 C-2.51446533 88.66893311 -2.54064941 87.88864746 -2.56762695 87.0847168 C-3.0931671 84.55078834 -4.0408526 83.63072223 -6 82 C-4.68 82.33 -3.36 82.66 -2 83 C-2 76.4 -2 69.8 -2 63 C-3.65 62.34 -5.3 61.68 -7 61 C-6.01 60.505 -6.01 60.505 -5 60 C-4.34 60.33 -3.68 60.66 -3 61 C-2.67 54.73 -2.34 48.46 -2 42 C-3.98 41.34 -5.96 40.68 -8 40 C-8.33 39.34 -8.66 38.68 -9 38 C-7.02 38.66 -5.04 39.32 -3 40 C-2.67 34.39 -2.34 28.78 -2 23 C-3.32 23.33 -4.64 23.66 -6 24 C-5.67 23.34 -5.34 22.68 -5 22 C-4.34 22 -3.68 22 -3 22 C-2.67 15.73 -2.34 9.46 -2 3 C-2.66 2.67 -3.32 2.34 -4 2 C-2.68 1.34 -1.36 0.68 0 0 Z " transform="translate(462,430)" style="fill: #6288A4;"/><path d="M0 0 C7.20982143 2.84757653 7.20982143 2.84757653 10 5 C10.375 7.625 10.375 7.625 10 10 C9.67 10.33 9.34 10.66 9 11 C9.33 11 9.66 11 10 11 C10 27 10 27 9.4375 29.0625 C9.293125 29.701875 9.14875 30.34125 9 31 C9.33 31.33 9.66 31.66 10 32 C10.04092937 34.33297433 10.04241723 36.66705225 10 39 C7.03 39 4.06 39 1 39 C1.33 38.01 1.66 37.02 2 36 C1.01 36.495 1.01 36.495 0 37 C0 24.66666667 0 12.33333333 0 0 Z " transform="translate(512,422)" style="fill: #FBFCFB;"/><path d="M0 0 C0.7877179 -0.0014502 1.57543579 -0.00290039 2.38702393 -0.00439453 C17.26366489 -0.00129805 32.02008673 1.09122926 46.5625 4.375 C46.5625 4.705 46.5625 5.035 46.5625 5.375 C16.5325 5.375 -13.4975 5.375 -44.4375 5.375 C-44.4375 5.045 -44.4375 4.715 -44.4375 4.375 C-29.58199719 1.1509486 -15.15188922 -0.02697866 0 0 Z " transform="translate(661.4375,339.625)" style="fill: #E8EFF3;"/><path d="M0 0 C0 5.61 0 11.22 0 17 C-0.66 17 -1.32 17 -2 17 C-1.34 17.66 -0.68 18.32 0 19 C0.26991906 21.68839385 0.08737357 24.29141936 0 27 C-3 28 -3 28 -13 28 C-13.33 21.07 -13.66 14.14 -14 7 C-1.4 0 -1.4 0 0 0 Z " transform="translate(561,559)" style="fill: #5C85A4;"/><path d="M0 0 C3.62276315 1.3255581 6.63505348 2.94346955 9.8125 5.125 C10.60269531 5.66382813 11.39289062 6.20265625 12.20703125 6.7578125 C12.79871094 7.16773438 13.39039063 7.57765625 14 8 C13.67 8.66 13.34 9.32 13 10 C13.66 10 14.32 10 15 10 C15 14.62 15 19.24 15 24 C12.16730334 25.41634833 9.52533562 25.3463005 6.375 25.5625 C5.18648437 25.64628906 3.99796875 25.73007812 2.7734375 25.81640625 C1.85820313 25.87699219 0.94296875 25.93757812 0 26 C0 17.33333333 0 8.66666667 0 0 Z " transform="translate(562,560)" style="fill: #5982A1;"/><path d="M0 0 C7.75 -0.125 7.75 -0.125 10 1 C10 6.28 10 11.56 10 17 C9.01 17 8.02 17 7 17 C7.99 17.66 8.98 18.32 10 19 C10 24 10 29 10 34 C5.26886581 34 3.67452438 32.8394052 0 30 C0 24.33333333 0 18.66666667 0 13 C0.66 13 1.32 13 2 13 C1.34 12.67 0.68 12.34 0 12 C0 8.04 0 4.08 0 0 Z " transform="translate(500,463)" style="fill: #E1E8EC;"/><path d="M0 0 C0.71542969 0.29132813 1.43085937 0.58265625 2.16796875 0.8828125 C4.94729765 2.02476498 4.94729765 2.02476498 7.67578125 2.8046875 C11.03085534 4.16659906 12.72989837 5.12886194 15 8 C16.31791477 14.53115817 15.60068462 21.41095176 15 28 C14.28457031 27.70867188 13.56914063 27.41734375 12.83203125 27.1171875 C10.05270235 25.97523502 10.05270235 25.97523502 7.32421875 25.1953125 C3.96914466 23.83340094 2.27010163 22.87113806 0 20 C-1.31791477 13.46884183 -0.60068462 6.58904824 0 0 Z " transform="translate(562,493)" style="fill: #537B98;"/><path d="M0 0 C5.1854475 1.99943381 10.04461634 4.48927228 15 7 C15 13.6 15 20.2 15 27 C12.710625 25.865625 10.42125 24.73125 8.0625 23.5625 C7.34070557 23.20615479 6.61891113 22.84980957 5.87524414 22.48266602 C1.11111111 20.11111111 1.11111111 20.11111111 0 19 C-0.08651611 17.58429877 -0.10704904 16.164405 -0.09765625 14.74609375 C-0.09443359 13.89208984 -0.09121094 13.03808594 -0.08789062 12.15820312 C-0.07951172 11.26037109 -0.07113281 10.36253906 -0.0625 9.4375 C-0.05798828 8.53580078 -0.05347656 7.63410156 -0.04882812 6.70507812 C-0.03700225 4.46998686 -0.0205222 2.23502563 0 0 Z " transform="translate(428,539)" style="fill: #527B98;"/><path d="M0 0 C0.495 10.395 0.495 10.395 1 21 C2.65 21.66 4.3 22.32 6 23 C5.34 23.33 4.68 23.66 4 24 C1.875 23.0625 1.875 23.0625 0 22 C0.0721875 23.21171875 0.144375 24.4234375 0.21875 25.671875 C0.78397136 35.70253546 1.10626812 45.67784225 0.96289062 55.72558594 C0.77975312 59.99626387 0.77975312 59.99626387 2 64 C1.34 64 0.68 64 0 64 C0.0407666 64.61520508 0.0815332 65.23041016 0.12353516 65.86425781 C0.30221977 68.65890625 0.46377962 71.45429198 0.625 74.25 C0.68945312 75.21808594 0.75390625 76.18617188 0.8203125 77.18359375 C0.89765625 78.58544922 0.89765625 78.58544922 0.9765625 80.015625 C1.02893066 80.87446289 1.08129883 81.73330078 1.13525391 82.61816406 C0.9870078 85.22879397 0.32298482 86.76943856 -1 89 C-0.95697754 88.25427734 -0.91395508 87.50855469 -0.86962891 86.74023438 C0.38799094 73.31246958 0.38799094 73.31246958 -3.42138672 60.98339844 C-7.13926305 57.83726535 -11.35059353 56.28383611 -16 55 C-17.1259775 65.85516118 -17.1259775 65.85516118 -13.67675781 75.68505859 C-10.17685219 78.58703759 -6.21763716 80.37512449 -2 82 C-2.99 82.495 -2.99 82.495 -4 83 C-6.3828125 81.78515625 -6.3828125 81.78515625 -9.125 80.0625 C-10.03507812 79.49660156 -10.94515625 78.93070313 -11.8828125 78.34765625 C-12.58148438 77.90292969 -13.28015625 77.45820312 -14 77 C-14.04898437 77.85464844 -14.09796875 78.70929688 -14.1484375 79.58984375 C-14.22320312 80.69457031 -14.29796875 81.79929687 -14.375 82.9375 C-14.44460938 84.03964844 -14.51421875 85.14179687 -14.5859375 86.27734375 C-14.72257812 87.17582031 -14.85921875 88.07429687 -15 89 C-15.99 89.495 -15.99 89.495 -17 90 C-17.11574483 79.49084227 -17.20463951 68.98183563 -17.25906086 58.47217083 C-17.28517785 53.59230254 -17.32061401 48.71286963 -17.37719727 43.83325195 C-17.43144245 39.12591576 -17.46140469 34.41899885 -17.47438622 29.71137428 C-17.48363963 27.91353565 -17.5017093 26.1157205 -17.52865028 24.31805992 C-17.56484239 21.80357283 -17.56994969 19.29082782 -17.56762695 16.77612305 C-17.58560333 16.02949905 -17.60357971 15.28287506 -17.62210083 14.5136261 C-17.60127258 12.43583679 -17.60127258 12.43583679 -17 9 C-14.58952332 6.95149231 -14.58952332 6.95149231 -12 6 C-11.34 6.33 -10.68 6.66 -10 7 C-11.32 8.32 -12.64 9.64 -14 11 C-8.06 14.465 -8.06 14.465 -2 18 C-1.67 12.72 -1.34 7.44 -1 2 C-2.32 2.33 -3.64 2.66 -5 3 C-2.25 0 -2.25 0 0 0 Z M-16 12 C-16.02888146 15.31248187 -16.04675799 18.62493167 -16.0625 21.9375 C-16.07087891 22.88302734 -16.07925781 23.82855469 -16.08789062 24.80273438 C-16.09111328 25.70185547 -16.09433594 26.60097656 -16.09765625 27.52734375 C-16.10289307 28.35999756 -16.10812988 29.19265137 -16.11352539 30.05053711 C-16.21643292 32.00516798 -16.21643292 32.00516798 -15 33 C-15.33 33 -15.66 33 -16 33 C-17.80615568 44.29751352 -17.80615568 44.29751352 -14.75634766 54.73242188 C-11.05661882 57.9555406 -5.98631929 61 -1 61 C-0.67711196 55.30799972 -0.44213801 49.62137771 -0.28588867 43.92236328 C-0.22074664 41.98749955 -0.13219249 40.05327034 -0.01928711 38.12060547 C1.02497444 27.73578316 1.02497444 27.73578316 -2.28570557 18.30810547 C-6.00231102 15.03377365 -10.9460116 12 -16 12 Z " transform="translate(444,442)" style="fill: #648CA8;"/><path d="M0 0 C0 5.61 0 11.22 0 17 C-1.32 16.34 -2.64 15.68 -4 15 C-3.2575 15.6496875 -3.2575 15.6496875 -2.5 16.3125 C-1 18 -1 18 -1 21 C-0.34 21.66 0.32 22.32 1 23 C0.9765625 26.0390625 0.9765625 26.0390625 0.625 29.625 C0.45871094 31.40777344 0.45871094 31.40777344 0.2890625 33.2265625 C0.19367188 34.14179688 0.09828125 35.05703125 0 36 C-3.55225704 34.28564986 -6.74021634 32.22257977 -10 30 C-9.125 26.125 -9.125 26.125 -8 25 C-8.66 25 -9.32 25 -10 25 C-11.37795187 7.81813095 -11.37795187 7.81813095 -8.03125 3.40234375 C-2.74800369 0 -2.74800369 0 0 0 Z " transform="translate(510,422)" style="fill: #E7ECEF;"/><path d="M0 0 C2.31362209 1.31055496 4.62592678 2.6233403 6.9375 3.9375 C7.9265332 4.49727539 7.9265332 4.49727539 8.93554688 5.06835938 C13.88671875 7.88671875 13.88671875 7.88671875 15 9 C15.08631874 10.34267413 15.10706473 11.68974322 15.09765625 13.03515625 C15.09443359 13.84404297 15.09121094 14.65292969 15.08789062 15.48632812 C15.07951172 16.33646484 15.07113281 17.18660156 15.0625 18.0625 C15.05798828 18.91650391 15.05347656 19.77050781 15.04882812 20.65039062 C15.03700373 22.76695663 15.01906769 24.88348685 15 27 C12.68637791 25.68944504 10.37407322 24.3766597 8.0625 23.0625 C7.40314453 22.68931641 6.74378906 22.31613281 6.06445312 21.93164062 C1.11328125 19.11328125 1.11328125 19.11328125 0 18 C-0.08631874 16.65732587 -0.10706473 15.31025678 -0.09765625 13.96484375 C-0.09443359 13.15595703 -0.09121094 12.34707031 -0.08789062 11.51367188 C-0.07951172 10.66353516 -0.07113281 9.81339844 -0.0625 8.9375 C-0.05798828 8.08349609 -0.05347656 7.22949219 -0.04882812 6.34960938 C-0.03700373 4.23304337 -0.01906769 2.11651315 0 0 Z " transform="translate(445,569)" style="fill: #517896;"/><path d="M0 0 C0 7.66666667 0 15.33333333 0 23 C-2.64 23 -5.28 23 -8 23 C-7.67 22.01 -7.34 21.02 -7 20 C-8.485 20.99 -8.485 20.99 -10 22 C-10 16.72 -10 11.44 -10 6 C-8.35 6 -6.7 6 -5 6 C-5.33 5.01 -5.66 4.02 -6 3 C-1.125 0 -1.125 0 0 0 Z " transform="translate(522,543)" style="fill: #FAFBFB;"/><path d="M0 0 C6 3 6 3 7 5 C7.845625 5.53625 8.69125 6.0725 9.5625 6.625 C12 9 12 9 12.328125 10.96875 C12.3135356 12.98208684 12.1618447 14.99312572 12 17 C12 17.66 12 18.32 12 19 C11.68521554 20.33783393 11.35412344 21.67203709 11 23 C9.68121422 22.23997083 8.3701316 21.46656347 7.0625 20.6875 C6.33160156 20.25824219 5.60070312 19.82898438 4.84765625 19.38671875 C3 18 3 18 2 15 C1.01 15.495 1.01 15.495 0 16 C0 10.72 0 5.44 0 0 Z " transform="translate(486,490)" style="fill: #E5ECF0;"/><path d="M0 0 C3.3 1.65 6.6 3.3 10 5 C10 10.94 10 16.88 10 23 C2.95336788 20.26943005 2.95336788 20.26943005 0 17 C-1.33896749 11.47986495 -0.56006396 5.58819373 0 0 Z " transform="translate(512,403)" style="fill: #FCFDFD;"/><path d="M0 0 C1.32 0.66 2.64 1.32 4 2 C3.67 2.66 3.34 3.32 3 4 C2.84932786 5.4465242 2.75138964 6.8987934 2.68359375 8.3515625 C2.64169922 9.20234375 2.59980469 10.053125 2.55664062 10.9296875 C2.51732422 11.81914063 2.47800781 12.70859375 2.4375 13.625 C2.39431641 14.5221875 2.35113281 15.419375 2.30664062 16.34375 C2.20043139 18.56234283 2.09838806 20.7810488 2 23 C2.99 23.33 3.98 23.66 5 24 C4.01 24.33 3.02 24.66 2 25 C2 31.93 2 38.86 2 46 C2.66 46.33 3.32 46.66 4 47 C3.505 47.495 3.505 47.495 3 48 C2.76298761 50.85877909 2.57780818 53.69883297 2.4375 56.5625 C2.39431641 57.36880859 2.35113281 58.17511719 2.30664062 59.00585938 C2.20024738 61.00368805 2.09959112 63.0018207 2 65 C3.98 64.505 3.98 64.505 6 64 C4.625 65.5 4.625 65.5 3 67 C2.34 67 1.68 67 1 67 C0.67 61.39 0.34 55.78 0 50 C-0.66 49.67 -1.32 49.34 -2 49 C-0.515 48.505 -0.515 48.505 1 48 C0.01 46.02 -0.98 44.04 -2 42 C-1.34 42 -0.68 42 0 42 C-0.13857841 38.87463363 -0.28709569 35.74981783 -0.4375 32.625 C-0.47681641 31.73554687 -0.51613281 30.84609375 -0.55664062 29.9296875 C-0.61948242 28.65351562 -0.61948242 28.65351562 -0.68359375 27.3515625 C-0.72025146 26.56604004 -0.75690918 25.78051758 -0.79467773 24.97119141 C-0.890891 22.92476504 -0.890891 22.92476504 -2 21 C-1.34 21 -0.68 21 0 21 C0 18.69 0 16.38 0 14 C-2.64 14 -5.28 14 -8 14 C-7.67 14.99 -7.34 15.98 -7 17 C-7.99 16.67 -8.98 16.34 -10 16 C-9.75 13.625 -9.75 13.625 -9 11 C-6.9375 9.6875 -6.9375 9.6875 -5 9 C-5.99 10.485 -5.99 10.485 -7 12 C-4.69 12.33 -2.38 12.66 0 13 C-0.08378906 12.39671875 -0.16757812 11.7934375 -0.25390625 11.171875 C-0.35574219 10.37265625 -0.45757813 9.5734375 -0.5625 8.75 C-0.66691406 7.96109375 -0.77132812 7.1721875 -0.87890625 6.359375 C-1.00027349 3.99467126 -0.69633257 2.2488963 0 0 Z " transform="translate(522,553)" style="fill: #E7EBEC;"/><path d="M0 0 C0 3.3 0 6.6 0 10 C-0.99 10 -1.98 10 -3 10 C-2.01 10.66 -1.02 11.32 0 12 C0 13.32 0 14.64 0 16 C-4.29 16 -8.58 16 -13 16 C-13 12.7 -13 9.4 -13 6 C-11.68 6 -10.36 6 -9 6 C-8.67 5.01 -8.34 4.02 -8 3 C-2.77777778 0 -2.77777778 0 0 0 Z " transform="translate(536,446)" style="fill: #FBFCFC;"/><path d="M0 0 C1.32 0.66 2.64 1.32 4 2 C4.08090971 3.62418745 4.13914995 5.24951745 4.1875 6.875 C4.22230469 7.77992188 4.25710938 8.68484375 4.29296875 9.6171875 C4.19628906 10.40351562 4.09960938 11.18984375 4 12 C1 14 1 14 -2 14 C-2.33 14.99 -2.66 15.98 -3 17 C-3.66 17 -4.32 17 -5 17 C-5 17.66 -5 18.32 -5 19 C-5.99 19.33 -6.98 19.66 -8 20 C-8 14.72 -8 9.44 -8 4 C-6.35 3.34 -4.7 2.68 -3 2 C-2.01 1.34 -1.02 0.68 0 0 Z " transform="translate(494,517)" style="fill: #E2EBEF;"/><path d="M0 0 C1.06881293 14.43745721 1.06881293 14.43745721 -1.48828125 18.17578125 C-3.88088017 19.85505876 -6.02784191 21 -9 21 C-9 15.39 -9 9.78 -9 4 C-2 0 -2 0 0 0 Z " transform="translate(510,404)" style="fill: #E7EDF1;"/><path d="M0 0 C2.475 0.99 2.475 0.99 5 2 C5 23.78 5 45.56 5 68 C2.525 68.99 2.525 68.99 0 70 C0.32342377 69.30598587 0.64684753 68.61197174 0.98007202 67.89692688 C2.12461108 64.64606403 2.27745957 62.09127912 2.31884766 58.64916992 C2.33871735 57.3882402 2.35858704 56.12731049 2.37905884 54.82817078 C2.39093337 53.46227188 2.40259633 52.09637113 2.4140625 50.73046875 C2.43278451 49.32512793 2.45235869 47.91979822 2.4727478 46.51448059 C2.52396617 42.82714406 2.56364666 39.13977113 2.60089111 35.45227051 C2.64099559 31.68488638 2.69205844 27.91765234 2.7421875 24.15039062 C2.83882475 16.76703024 2.92326819 9.38359694 3 2 C2.01 1.67 1.02 1.34 0 1 C0 0.67 0 0.34 0 0 Z " transform="translate(472,479)" style="fill: #5D7E96;"/><path d="M0 0 C3.3824119 1.35296476 6.18603814 2.53896179 9.25 4.375 C9.93578125 4.77460937 10.6215625 5.17421875 11.328125 5.5859375 C13 7 13 7 13.859375 8.9765625 C14 11 14 11 12 14 C8.03739588 15.02632544 4.06339475 15.43804115 0 16 C0 10.72 0 5.44 0 0 Z " transform="translate(579,570)" style="fill: #5A84A2;"/><path d="M0 0 C1.485 0.99 1.485 0.99 3 2 C4.65 1.67 6.3 1.34 8 1 C8 7.27 8 13.54 8 20 C2 19 2 19 0 17 C-0.14517744 14.0906442 -0.18630796 11.280054 -0.125 8.375 C-0.11597656 7.57320312 -0.10695313 6.77140625 -0.09765625 5.9453125 C-0.07406223 3.96341477 -0.03819065 1.98167019 0 0 Z " transform="translate(538,545)" style="fill: #F9FBFB;"/><path d="M0 0 C0 6.6 0 13.2 0 20 C-2.64 19.01 -5.28 18.02 -8 17 C-8.13489391 14.73078464 -8.23193995 12.4592933 -8.3125 10.1875 C-8.37050781 8.92292969 -8.42851563 7.65835938 -8.48828125 6.35546875 C-8 3 -8 3 -5.66796875 1.05078125 C-3 0 -3 0 0 0 Z " transform="translate(546,567)" style="fill: #FAFDFD;"/><path d="M0 0 C4.93730393 0.98746079 6.56099928 1.56099928 10 5 C11.62500326 9.37500878 11.09062188 14.37828415 11 19 C7.66272214 17.82744291 5.22562513 16.81131596 3 14 C3 13.34 3 12.68 3 12 C2.01 12 1.02 12 0 12 C0 8.04 0 4.08 0 0 Z " transform="translate(512,508)" style="fill: #F9FAFA;"/><path d="M0 0 C0 5.61 0 11.22 0 17 C-4 18 -4 18 -6 17 C-5 15 -5 15 -4 14 C-5.11375 13.5875 -6.2275 13.175 -7.375 12.75 C-9.97010674 11.78884936 -10.80895871 11.32854235 -12.2265625 8.890625 C-12.48179687 8.26671875 -12.73703125 7.6428125 -13 7 C-11.40207898 5.82479354 -9.79643092 4.66008753 -8.1875 3.5 C-7.29417969 2.8503125 -6.40085937 2.200625 -5.48046875 1.53125 C-3 0 -3 0 0 0 Z " transform="translate(499,474)" style="fill: #E6EDF1;"/><path d="M0 0 C0.33 0 0.66 0 1 0 C2.11302642 12.87814511 1.9411464 25.59150205 1.5625 38.5 C1.50911747 40.49868071 1.45637906 42.49737873 1.40429688 44.49609375 C1.27693559 49.33096033 1.14093137 54.16551073 1 59 C0.34 59 -0.32 59 -1 59 C-1 57.02 -1 55.04 -1 53 C-1.66 52.67 -2.32 52.34 -3 52 C-2.34 52 -1.68 52 -1 52 C-1 47.71 -1 43.42 -1 39 C-1.66 38.67 -2.32 38.34 -3 38 C-2.34 38 -1.68 38 -1 38 C-1.185625 37.030625 -1.37125 36.06125 -1.5625 35.0625 C-1.706875 34.051875 -1.85125 33.04125 -2 32 C-1.67 31.67 -1.34 31.34 -1 31 C-1.03789637 28.83116183 -1.15494515 26.66343976 -1.3125 24.5 C-1.39113281 23.3140625 -1.46976562 22.128125 -1.55078125 20.90625 C-1.69902344 19.9471875 -1.84726562 18.988125 -2 18 C-2.66 17.67 -3.32 17.34 -4 17 C-3.01 16.67 -2.02 16.34 -1 16 C-1 15.34 -1 14.68 -1 14 C-2.32 13.34 -3.64 12.68 -5 12 C-2 12 -2 12 0 13 C0 8.71 0 4.42 0 0 Z " transform="translate(511,468)" style="fill: #CCD5DB;"/><path d="M0 0 C0.84023188 4.35332736 1.10770995 8.44442519 1.0625 12.875 C1.05347656 14.02742188 1.04445313 15.17984375 1.03515625 16.3671875 C1.02355469 17.23601562 1.01195312 18.10484375 1 19 C-1.9719385 17.87548273 -4.33440687 16.77706209 -7 15 C-7.29296875 12.1796875 -7.29296875 12.1796875 -7.1875 8.875 C-7.16042969 7.77929688 -7.13335938 6.68359375 -7.10546875 5.5546875 C-7.07066406 4.71164062 -7.03585937 3.86859375 -7 3 C-1.125 0 -1.125 0 0 0 Z " transform="translate(545,463)" style="fill: #FAFCFD;"/><path d="M0 0 C2.32904908 0.94617619 4.06363686 2.22191599 6 3.8125 C5.77734375 6.13671875 5.77734375 6.13671875 5 8.8125 C3.00390625 10.39453125 3.00390625 10.39453125 0.5625 11.625 C-0.24058594 12.04394531 -1.04367187 12.46289062 -1.87109375 12.89453125 C-4 13.8125 -4 13.8125 -6 13.8125 C-6 9.8525 -6 5.8925 -6 1.8125 C-2 -0.1875 -2 -0.1875 0 0 Z " transform="translate(530,540.1875)" style="fill: #FDFDFD;"/><path d="M0 0 C7.75 5.625 7.75 5.625 10 9 C10 11 10 13 10 15 C6.54691689 17.09651475 6.54691689 17.09651475 3.875 16.625 C2.946875 16.315625 2.946875 16.315625 2 16 C1.34 16 0.68 16 0 16 C0 10.72 0 5.44 0 0 Z " transform="translate(512,527)" style="fill: #FAFBFA;"/><path d="M0 0 C0 4.29 0 8.58 0 13 C-7.96875 10.34375 -7.96875 10.34375 -10 8 C-10.3380915 5.24619024 -10.18311954 2.79257303 -10 0 C-5.87056754 -2.85883785 -5.4911845 -1.83039483 0 0 Z " transform="translate(510,507)" style="fill: #E4ECF0;"/><path d="M0 0 C1.98 0.99 3.96 1.98 6 3 C6 6.63 6 10.26 6 14 C0.73829306 12.58832253 -2.72171358 10.25149768 -7 7 C-5.66667905 3.00003714 -3.5042173 2.16217663 0 0 Z " transform="translate(493,539)" style="fill: #E7EEF2;"/><path d="M0 0 C4.875 1.875 4.875 1.875 6 3 C6.08631874 4.34267413 6.10706473 5.68974322 6.09765625 7.03515625 C6.09282227 8.24848633 6.09282227 8.24848633 6.08789062 9.48632812 C6.07951172 10.33646484 6.07113281 11.18660156 6.0625 12.0625 C6.05798828 12.91650391 6.05347656 13.77050781 6.04882812 14.65039062 C6.03700373 16.76695663 6.01906769 18.88348685 6 21 C1.125 19.125 1.125 19.125 0 18 C-0.08631874 16.65732587 -0.10706473 15.31025678 -0.09765625 13.96484375 C-0.09443359 13.15595703 -0.09121094 12.34707031 -0.08789062 11.51367188 C-0.07951172 10.66353516 -0.07113281 9.81339844 -0.0625 8.9375 C-0.05798828 8.08349609 -0.05347656 7.22949219 -0.04882812 6.34960938 C-0.03700373 4.23304337 -0.01906769 2.11651315 0 0 Z " transform="translate(478,588)" style="fill: #E6EEF2;"/><path d="M0 0 C2.475 0.99 2.475 0.99 5 2 C4.01 2.495 4.01 2.495 3 3 C3.11386459 5.77170395 3.24060778 8.54178046 3.375 11.3125 C3.4059375 12.09818359 3.436875 12.88386719 3.46875 13.69335938 C3.50742187 14.45068359 3.54609375 15.20800781 3.5859375 15.98828125 C3.6173584 16.68477783 3.6487793 17.38127441 3.68115234 18.09887695 C3.92118253 20.32532739 3.92118253 20.32532739 6 23 C5.34 23 4.68 23 4 23 C3.67 28.94 3.34 34.88 3 41 C4.65 41.66 6.3 42.32 8 43 C6 44 6 44 3 43 C3 48.94 3 54.88 3 61 C2.01 61.495 2.01 61.495 1 62 C-1.4750171 60.88568235 -3.67883419 59.41849022 -6 58 C-6 57.34 -6 56.68 -6 56 C-3.0280615 57.12451727 -0.66559313 58.22293791 2 60 C2 54.72 2 49.44 2 44 C1.34 43.67 0.68 43.34 0 43 C0 42.34 0 41.68 0 41 C-0.33 40.34 -0.66 39.68 -1 39 C-0.34 39 0.32 39 1 39 C1.02696009 36.2291017 1.04681952 33.4584655 1.0625 30.6875 C1.07087891 29.90181641 1.07925781 29.11613281 1.08789062 28.30664062 C1.09111328 27.54931641 1.09433594 26.79199219 1.09765625 26.01171875 C1.10289307 25.31522217 1.10812988 24.61872559 1.11352539 23.90112305 C1.06895991 21.77502032 1.06895991 21.77502032 0 19 C0.66 19 1.32 19 2 19 C1.67 13.72 1.34 8.44 1 3 C-0.32 3.33 -1.64 3.66 -3 4 C-2.67 3.34 -2.34 2.68 -2 2 C-1.34 2 -0.68 2 0 2 C0 1.34 0 0.68 0 0 Z " transform="translate(559,430)" style="fill: #6188A3;"/><path d="M0 0 C0.33 0 0.66 0 1 0 C1.03963867 0.61520508 1.07927734 1.23041016 1.12011719 1.86425781 C1.31108007 4.66117832 1.53022558 7.45520201 1.75 10.25 C1.8428125 11.70212891 1.8428125 11.70212891 1.9375 13.18359375 C2.33190326 18.84614912 2.33190326 18.84614912 5.078125 23.671875 C5.71234375 24.11015625 6.3465625 24.5484375 7 25 C5.68 24.67 4.36 24.34 3 24 C3 29.94 3 35.88 3 42 C-3 40 -3 40 -4 38 C-2.68 38.33 -1.36 38.66 0 39 C-0.03304209 36.08028117 -0.10022323 33.1681772 -0.1875 30.25 C-0.19620117 29.0125 -0.19620117 29.0125 -0.20507812 27.75 C-0.3635397 22.50941428 -0.3635397 22.50941428 -3.55078125 18.421875 C-4.35902344 17.95265625 -5.16726563 17.4834375 -6 17 C-5.19175781 16.65324219 -4.38351562 16.30648437 -3.55078125 15.94921875 C-0.65620394 14.1765335 -0.65620394 14.1765335 -0.29296875 10.64453125 C-0.24076172 8.74767578 -0.24076172 8.74767578 -0.1875 6.8125 C-0.13980469 5.54019531 -0.09210938 4.26789062 -0.04296875 2.95703125 C-0.02878906 1.98121094 -0.01460938 1.00539063 0 0 Z " transform="translate(484,570)" style="fill: #D4DDE2;"/><path d="M0 0 C1.98 0.66 3.96 1.32 6 2 C6.1079859 4.43868168 6.18726589 6.87259133 6.25 9.3125 C6.28351563 10.00279297 6.31703125 10.69308594 6.3515625 11.40429688 C6.45057158 16.52801696 6.45057158 16.52801696 4.109375 18.98046875 C2 20 2 20 0 20 C0 13.4 0 6.8 0 0 Z " transform="translate(478,567)" style="fill: #E9F0F3;"/><path d="M0 0 C1.48199902 0.44909061 2.96055236 0.90956564 4.4375 1.375 C5.26121094 1.63023437 6.08492187 1.88546875 6.93359375 2.1484375 C9 3 9 3 10 5 C7.69 4.34 5.38 3.68 3 3 C2.67 4.32 2.34 5.64 2 7 C2.66 7.33 3.32 7.66 4 8 C3.34 8 2.68 8 2 8 C2.33 13.94 2.66 19.88 3 26 C4.65 25.01 6.3 24.02 8 23 C8.66 23.33 9.32 23.66 10 24 C6.7 26.31 3.4 28.62 0 31 C-0.66 30.67 -1.32 30.34 -2 30 C-1.34 29.01 -0.68 28.02 0 27 C0.27356843 25.06862318 0.27356843 25.06862318 0.1953125 22.98828125 C0.18886719 22.23095703 0.18242188 21.47363281 0.17578125 20.69335938 C0.15902344 19.90767578 0.14226563 19.12199219 0.125 18.3125 C0.11597656 17.51521484 0.10695313 16.71792969 0.09765625 15.89648438 C0.07411585 13.930861 0.03824547 11.96539225 0 10 C-0.61875 10.495 -1.2375 10.99 -1.875 11.5 C-4 13 -4 13 -6 13 C-6 12.34 -6 11.68 -6 11 C-5.195625 10.62875 -4.39125 10.2575 -3.5625 9.875 C-0.86762813 8.30777176 -0.86762813 8.30777176 -0.4453125 6.02734375 C-0.21238262 4.02626435 -0.09895862 2.01215861 0 0 Z " transform="translate(536,583)" style="fill: #D3DCE0;"/><path d="M0 0 C8.75 2.625 8.75 2.625 11 6 C10.67 6.33 10.34 6.66 10 7 C9.95936168 8.66617115 9.957279 10.33388095 10 12 C8.63875 11.9690625 8.63875 11.9690625 7.25 11.9375 C3.83853378 11.88181489 3.83853378 11.88181489 0 13 C0 8.71 0 4.42 0 0 Z " transform="translate(500,494)" style="fill: #DDE6EA;"/><path d="M0 0 C1.98 0.66 3.96 1.32 6 2 C6.13536022 4.08153935 6.23215465 6.16561206 6.3125 8.25 C6.37050781 9.41015625 6.42851562 10.5703125 6.48828125 11.765625 C6 15 6 15 3.54296875 17.421875 C1 19 1 19 0 19 C0 12.73 0 6.46 0 0 Z " transform="translate(478,463)" style="fill: #EBF1F4;"/><path d="M0 0 C0 5.28 0 10.56 0 16 C-3.70500184 14.51799926 -6.67262 13.091496 -10 11 C-9.45864047 7.17664834 -7.91516382 5.68624405 -5 3.25 C-4.278125 2.63640625 -3.55625 2.0228125 -2.8125 1.390625 C-1 0 -1 0 0 0 Z " transform="translate(510,590)" style="fill: #E9EEF1;"/><path d="M0 0 C0.66 0.33 1.32 0.66 2 1 C2 3.97 2 6.94 2 10 C-2.29 10 -6.58 10 -11 10 C-11 9.01 -11 8.02 -11 7 C-8.6640625 5.140625 -8.6640625 5.140625 -5.625 3.25 C-4.62726563 2.61578125 -3.62953125 1.9815625 -2.6015625 1.328125 C-1.31378906 0.67070312 -1.31378906 0.67070312 0 0 Z " transform="translate(497,451)" style="fill: #E7EDF0;"/><path d="M0 0 C0.66 0.33 1.32 0.66 2 1 C1.01 1.33 0.02 1.66 -1 2 C-0.505 2.598125 -0.01 3.19625 0.5 3.8125 C2 6 2 6 2 9 C4.475 9.99 4.475 9.99 7 11 C7 12.65 7 14.3 7 16 C2.64790264 16 0.82700561 13.8462893 -2.32421875 11.0234375 C-4 9 -4 9 -4.5 5.0625 C-4.335 4.051875 -4.17 3.04125 -4 2 C-2.125 0.9375 -2.125 0.9375 0 0 Z " transform="translate(516,518)" style="fill: #F1F3F3;"/><path d="M0 0 C0 3.3 0 6.6 0 10 C-4.66861981 8.39516194 -9.09258167 6.02509806 -13 3 C-13 2.34 -13 1.68 -13 1 C-11.39602723 0.83147753 -9.7918131 0.66525114 -8.1875 0.5 C-7.29417969 0.4071875 -6.40085937 0.314375 -5.48046875 0.21875 C-3 0 -3 0 0 0 Z " transform="translate(561,586)" style="fill: #527996;"/><path d="M0 0 C0.33 0 0.66 0 1 0 C0.99097656 0.60328125 0.98195313 1.2065625 0.97265625 1.828125 C1.06751913 4.38529823 1.25666039 6.54613458 2 9 C4.22610045 11.03880834 6.16328604 11.8137378 9 13 C9 15.31 9 17.62 9 20 C8.67 20 8.34 20 8 20 C7.67 18.35 7.34 16.7 7 15 C5.02 15.66 3.04 16.32 1 17 C1 21.95 1 26.9 1 32 C0.67 32 0.34 32 0 32 C-0.19937616 28.35471652 -0.38229958 24.70877772 -0.5625 21.0625 C-0.61857422 20.04091797 -0.67464844 19.01933594 -0.73242188 17.96679688 C-1.02651964 11.82995694 -0.85671026 6.08581583 0 0 Z " transform="translate(537,449)" style="fill: #CEDBE0;"/><path d="M0 0 C4.29 0 8.58 0 13 0 C13.125 3.375 13.125 3.375 13 7 C12.34 7.66 11.68 8.32 11 9 C9.16136495 7.88368586 7.32920277 6.75670373 5.5 5.625 C4.4790625 4.99851562 3.458125 4.37203125 2.40625 3.7265625 C1.6121875 3.15679687 0.818125 2.58703125 0 2 C0 1.34 0 0.68 0 0 Z " transform="translate(486,463)" style="fill: #E7EEF1;"/><path d="M0 0 C7.03125 4.4921875 7.03125 4.4921875 9 6 C9 8 9 8 7.5390625 9.5078125 C6.59160156 10.30832031 6.59160156 10.30832031 5.625 11.125 C4.99851562 11.66382813 4.37203125 12.20265625 3.7265625 12.7578125 C2 14 2 14 0 14 C0 9.38 0 4.76 0 0 Z " transform="translate(501,581)" style="fill: #E7EDF1;"/><path d="M0 0 C4.29 0 8.58 0 13 0 C12 4 12 4 9 6 C6.27716095 6.31254378 3.75557514 6.13333428 1 6 C0 5 0 5 0 0 Z " transform="translate(523,463)" style="fill: #FCFDFC;"/><path d="M0 0 C2.16842379 1.19670187 4.0141689 2.49851795 6 4 C5.01 4.495 5.01 4.495 4 5 C1.5249829 3.88568235 -0.67883419 2.41849022 -3 1 C-3.33 6.28 -3.66 11.56 -4 17 C-4.66 17 -5.32 17 -6 17 C-6 11.72 -6 6.44 -6 1 C-7.11375 1.680625 -8.2275 2.36125 -9.375 3.0625 C-11.2734375 4.22265625 -11.2734375 4.22265625 -13 5 C-13.66 4.67 -14.32 4.34 -15 4 C-9.85336161 0.13667923 -6.541261 -2.05928587 0 0 Z " transform="translate(516,403)" style="fill: #DCE3E7;"/><path d="M0 0 C0.66 0 1.32 0 2 0 C2 0.66 2 1.32 2 2 C2.99 2.33 3.98 2.66 5 3 C5.25 6.3125 5.25 6.3125 5 10 C3.125 11.9375 3.125 11.9375 1 13 C0.34 13 -0.32 13 -1 13 C-1.22162329 11.37675914 -1.42689803 9.751279 -1.625 8.125 C-1.74101563 7.22007812 -1.85703125 6.31515625 -1.9765625 5.3828125 C-1.98429688 4.59648438 -1.99203125 3.81015625 -2 3 C-1.34 2.34 -0.68 1.68 0 1 C0 0.67 0 0.34 0 0 Z " transform="translate(531,581)" style="fill: #EEF2F4;"/><path d="M0 0 C3.96 1.98 3.96 1.98 8 4 C8 4.99 8 5.98 8 7 C6.25 8.38671875 6.25 8.38671875 4 9.6875 C2.68 10.450625 1.36 11.21375 0 12 C0 8.04 0 4.08 0 0 Z " transform="translate(486,445)" style="fill: #E5ECF0;"/><path d="M0 0 C4.44607497 1.77842999 5.9797308 2.64414533 9 6 C6.03 7.65 3.06 9.3 0 11 C0 7.37 0 3.74 0 0 Z " transform="translate(486,550)" style="fill: #E7EEF1;"/><path d="M0 0 C4.04420651 1.77945087 7.46078487 4.39529673 11 7 C8.35261084 8.4606285 7.10551666 9 4 9 C2.66018514 9.3062434 1.32488113 9.63451555 0 10 C0.185625 9.278125 0.37125 8.55625 0.5625 7.8125 C1.01995307 4.87173027 0.73516357 2.85896942 0 0 Z " transform="translate(524,530)" style="fill: #FAFAFA;"/><path d="M0 0 C1.98 0.66 3.96 1.32 6 2 C6 2.99 6 3.98 6 5 C5.34 5 4.68 5 4 5 C4.66 6.32 5.32 7.64 6 9 C4.02 9.99 2.04 10.98 0 12 C0 8.04 0 4.08 0 0 Z " transform="translate(486,508)" style="fill: #DFE7EC;"/><path d="M0 0 C1.175625 0.5259375 1.175625 0.5259375 2.375 1.0625 C3.674375 1.5265625 3.674375 1.5265625 5 2 C5.66 1.67 6.32 1.34 7 1 C9.4750171 2.11431765 11.67883419 3.58150978 14 5 C14 5.66 14 6.32 14 7 C10.77208445 9.1519437 9.71599191 9.20086443 6 9 C6 7.68 6 6.36 6 5 C5.34 5 4.68 5 4 5 C2.61767557 3.37373596 1.28062485 1.7074998 0 0 Z " transform="translate(532,477)" style="fill: #EBEEF0;"/><path d="M0 0 C7.75 -0.125 7.75 -0.125 10 1 C10 1.66 10 2.32 10 3 C7.03 4.65 4.06 6.3 1 8 C0.67 5.36 0.34 2.72 0 0 Z " transform="translate(512,472)" style="fill: #FBFDFD;"/><path d="M0 0 C2.475 0.99 2.475 0.99 5 2 C4.8125 4.3125 4.8125 4.3125 4 7 C-0.03448276 10 -0.03448276 10 -3 10 C-3.33 10.99 -3.66 11.98 -4 13 C-4.625 11.125 -4.625 11.125 -5 9 C-4 8 -3 7 -2 6 C-2 5.01 -2 4.02 -2 3 C-1.34 2.34 -0.68 1.68 0 1 C0 0.67 0 0.34 0 0 Z " transform="translate(492,510)" style="fill: #D6DFE3;"/><path d="M0 0 C0 2.64 0 5.28 0 8 C-2.97 7.505 -2.97 7.505 -6 7 C-6.33 5.35 -6.66 3.7 -7 2 C-4 0 -4 0 0 0 Z " transform="translate(485,540)" style="fill: #D5DEE5;"/><path d="M0 0 C0.66 0.33 1.32 0.66 2 1 C1.01 1.33 0.02 1.66 -1 2 C-1 2.66 -1 3.32 -1 4 C0.32 4.33 1.64 4.66 3 5 C3.33 4.01 3.66 3.02 4 2 C4.2475 2.7425 4.495 3.485 4.75 4.25 C6.09147301 7.20124062 7.60905526 8.84814974 10 11 C7.525 10.01 7.525 10.01 5 9 C4.67 12.96 4.34 16.92 4 21 C3.67 21 3.34 21 3 21 C2.99742187 20.02417969 2.99484375 19.04835938 2.9921875 18.04296875 C2.95351563 16.77066406 2.91484375 15.49835937 2.875 14.1875 C2.85179687 12.92292969 2.82859375 11.65835938 2.8046875 10.35546875 C2.34396873 6.72207527 2.34396873 6.72207527 -1.0546875 5.05078125 C-2.02664063 4.70402344 -2.99859375 4.35726562 -4 4 C-2.68 2.68 -1.36 1.36 0 0 Z " transform="translate(482,563)" style="fill: #CDD6DB;"/><path d="M0 0 C0.66 0 1.32 0 2 0 C2 2.97 2 5.94 2 9 C-2.83256305 8.58578031 -4.82679218 6.53586014 -8 3 C-7.13375 3.37125 -7.13375 3.37125 -6.25 3.75 C-5.5075 3.8325 -4.765 3.915 -4 4 C-1.85410577 2.10413616 -1.85410577 2.10413616 0 0 Z " transform="translate(534,527)" style="fill: #E9ECEC;"/><path d="M0 0 C3.96 1.98 3.96 1.98 8 4 C5.35645475 6.83236991 3.56311466 8.21844267 0 10 C0 6.7 0 3.4 0 0 Z " transform="translate(486,467)" style="fill: #E9EFF2;"/><path d="M0 0 C1.48285242 0.95262034 2.96118201 1.91228405 4.4375 2.875 C5.67306641 3.67550781 5.67306641 3.67550781 6.93359375 4.4921875 C9 6 9 6 10 8 C6.7 8 3.4 8 0 8 C0 5.36 0 2.72 0 0 Z " transform="translate(500,453)" style="fill: #E9EFF3;"/><path d="M0 0 C3.96 1.98 3.96 1.98 8 4 C5.16671013 6.83328987 3.64553172 7.7191375 0 9 C0 6.03 0 3.06 0 0 Z " transform="translate(500,542)" style="fill: #EAEFF3;"/><path d="M0 0 C4.41889613 1.35021826 6.34345343 3.26115668 9 7 C6.03 7 3.06 7 0 7 C0 4.69 0 2.38 0 0 Z " transform="translate(500,559)" style="fill: #E6EDF0;"/><path d="M0 0 C0.66 0.33 1.32 0.66 2 1 C2 4.27275026 1.70074844 6.846632 1 10 C-0.98 8.68 -2.96 7.36 -5 6 C-3.86695008 2.60085025 -2.87481525 1.94745549 0 0 Z " transform="translate(483,478)" style="fill: #D9E1E5;"/><path d="M0 0 C1.32 0.66 2.64 1.32 4 2 C1.373409 4.91843445 -1.66976339 6.94517315 -5 9 C-5.66 9 -6.32 9 -7 9 C-7 7.68 -7 6.36 -7 5 C-4 3 -4 3 -1 2 C-0.67 1.34 -0.34 0.68 0 0 Z " transform="translate(493,533)" style="fill: #E1EAEE;"/><path d="M0 0 C0.99 0.33 1.98 0.66 3 1 C1.76736651 4.69790046 0.79947549 4.9354846 -2.5625 6.6875 C-3.80193359 7.34298828 -3.80193359 7.34298828 -5.06640625 8.01171875 C-5.70449219 8.33785156 -6.34257812 8.66398437 -7 9 C-6.46576147 5.07790741 -6.3300445 4.27264546 -3.125 1.625 C-2.09375 1.08875 -1.0625 0.5525 0 0 Z " transform="translate(493,472)" style="fill: #DBE3E7;"/><path d="M0 0 C0 2.97 0 5.94 0 9 C-2.31 8.01 -4.62 7.02 -7 6 C-5.96557526 2.89672578 -3.70631018 0 0 0 Z " transform="translate(522,476)" style="fill: #FCFCFC;"/><path d="M0 0 C0.80050781 0.12761719 1.60101562 0.25523437 2.42578125 0.38671875 C3.23402344 0.50660156 4.04226563 0.62648438 4.875 0.75 C5.48988281 0.85699219 6.10476563 0.96398437 6.73828125 1.07421875 C7.06828125 2.72421875 7.39828125 4.37421875 7.73828125 6.07421875 C6.83335937 5.84025391 6.83335937 5.84025391 5.91015625 5.6015625 C5.1109375 5.40691406 4.31171875 5.21226562 3.48828125 5.01171875 C2.30492187 4.71587891 2.30492187 4.71587891 1.09765625 4.4140625 C-1.36566697 4.05924608 -2.91776007 4.30544331 -5.26171875 5.07421875 C-5.26171875 3.07421875 -5.26171875 3.07421875 -4.0546875 1.4296875 C-2.26171875 0.07421875 -2.26171875 0.07421875 0 0 Z " transform="translate(529.26171875,536.92578125)" style="fill: #F2F5F5;"/><path d="M0 0 C0.33 0 0.66 0 1 0 C1 3.3 1 6.6 1 10 C2.32 9.67 3.64 9.34 5 9 C2.20283196 12.29078593 -1.19528578 14.06305458 -5 16 C-5.66 15.67 -6.32 15.34 -7 15 C-5.35 14.01 -3.7 13.02 -2 12 C-2.66 11.01 -3.32 10.02 -4 9 C-2.68 9.33 -1.36 9.66 0 10 C0 6.7 0 3.4 0 0 Z " transform="translate(561,586)" style="fill: #6087A2;"/><path d="M0 0 C2.475 0.99 2.475 0.99 5 2 C3.625 4 3.625 4 2 6 C1.34 6 0.68 6 0 6 C0 10.95 0 15.9 0 21 C-0.33 21 -0.66 21 -1 21 C-1.22354724 18.62556577 -1.429163 16.25174905 -1.625 13.875 C-1.72167969 12.87726563 -1.72167969 12.87726563 -1.8203125 11.859375 C-2.16909098 7.41244943 -1.68247185 4.12269819 0 0 Z " transform="translate(538,460)" style="fill: #DBE3E7;"/><path d="M0 0 C2.31 0 4.62 0 7 0 C7 2.64 7 5.28 7 8 C6.01 7.67 5.02 7.34 4 7 C3.67 6.01 3.34 5.02 3 4 C2.01 3.34 1.02 2.68 0 2 C0 1.34 0 0.68 0 0 Z " transform="translate(503,472)" style="fill: #EAF0F3;"/><path d="M0 0 C0 1.98 0 3.96 0 6 C-0.845625 5.5875 -1.69125 5.175 -2.5625 4.75 C-6.30811239 3.93277548 -6.75766516 4.05920007 -9.875 5.875 C-10.90625 6.57625 -11.9375 7.2775 -13 8 C-13 7.34 -13 6.68 -13 6 C-11.390625 4.74609375 -11.390625 4.74609375 -9.25 3.4375 C-8.55390625 3.00308594 -7.8578125 2.56867187 -7.140625 2.12109375 C-4.85710493 0.92516262 -2.61627922 0 0 0 Z " transform="translate(499,536)" style="fill: #D8E1E6;"/><path d="M0 0 C0 1.65 0 3.3 0 5 C-1.98 5 -3.96 5 -6 5 C-6.33 5.99 -6.66 6.98 -7 8 C-7.99 7.67 -8.98 7.34 -10 7 C-10 5 -10 5 -8.75 3.5 C-5.85272839 1.01662434 -3.8445159 0 0 0 Z " transform="translate(499,529)" style="fill: #D4DDE3;"/><path d="M0 0 C0 1.98 0 3.96 0 6 C-2.97 5.67 -5.94 5.34 -9 5 C-4.32258065 0 -4.32258065 0 0 0 Z " transform="translate(510,550)" style="fill: #F2F5F6;"/><path d="M0 0 C0.33 0.66 0.66 1.32 1 2 C2.65 1.34 4.3 0.68 6 0 C4.68 1.65 3.36 3.3 2 5 C2.66 6.65 3.32 8.3 4 10 C3.34 10 2.68 10 2 10 C2 10.66 2 11.32 2 12 C1.34 12 0.68 12 0 12 C0 8.04 0 4.08 0 0 Z " transform="translate(512,496)" style="fill: #ECEFF1;"/><path d="M0 0 C2.97 1.98 2.97 1.98 6 4 C5.67 5.32 5.34 6.64 5 8 C2.525 7.01 2.525 7.01 0 6 C0 4.02 0 2.04 0 0 Z " transform="translate(500,494)" style="fill: #E2E9EE;"/><path d="M0 0 C4.12751449 0.60698743 7.3321148 2.03810791 11 4 C10.67 4.99 10.34 5.98 10 7 C7.36 5.68 4.72 4.36 2 3 C2 2.34 2 1.68 2 1 C1.34 0.67 0.68 0.34 0 0 Z " transform="translate(486,548)" style="fill: #D9E1E6;"/><path d="M0 0 C3.36591866 1.44253657 5.51047079 3.33264727 8 6 C5.36 6.33 2.72 6.66 0 7 C0 4.69 0 2.38 0 0 Z " transform="translate(500,500)" style="fill: #D6DFE4;"/><path d="M0 0 C0 1.98 0 3.96 0 6 C-1.65 5.67 -3.3 5.34 -5 5 C-5 4.34 -5 3.68 -5 3 C-5.66 2.67 -6.32 2.34 -7 2 C-4.35261084 0.5393715 -3.10551666 0 0 0 Z " transform="translate(485,459)" style="fill: #D7E0E5;"/><path d="M0 0 C0.66 0.33 1.32 0.66 2 1 C0.35 2.65 -1.3 4.3 -3 6 C-1.68 6.66 -0.36 7.32 1 8 C-0.98 8.33 -2.96 8.66 -5 9 C-5.3125 6.1875 -5.3125 6.1875 -5 3 C-2.625 1.0625 -2.625 1.0625 0 0 Z " transform="translate(505,548)" style="fill: #DAE1E5;"/><path d="M0 0 C0.33 0 0.66 0 1 0 C1 4.62 1 9.24 1 14 C0.34 14 -0.32 14 -1 14 C-1 12.02 -1 10.04 -1 8 C-1.66 7.67 -2.32 7.34 -3 7 C-2.34 7 -1.68 7 -1 7 C-0.67 4.69 -0.34 2.38 0 0 Z " transform="translate(511,513)" style="fill: #C5D0D6;"/><path d="M0 0 C1.48199902 0.44909061 2.96055236 0.90956564 4.4375 1.375 C5.26121094 1.63023437 6.08492187 1.88546875 6.93359375 2.1484375 C9 3 9 3 10 5 C7.69 4.34 5.38 3.68 3 3 C2.34 4.65 1.68 6.3 1 8 C0.67 8 0.34 8 0 8 C0 5.36 0 2.72 0 0 Z " transform="translate(536,583)" style="fill: #DAE1E5;"/><path d="M0 0 C2.64 0 5.28 0 8 0 C5.51047079 2.66735273 3.36591866 4.55746343 0 6 C0 4.02 0 2.04 0 0 Z " transform="translate(500,463)" style="fill: #E8EFF3;"/><path d="M0 0 C2.64 0 5.28 0 8 0 C8 1.65 8 3.3 8 5 C4.62496331 3.8141763 2.35277269 2.72426311 0 0 Z " transform="translate(514,463)" style="fill: #FCFEFE;"/><path d="M0 0 C0 1.65 0 3.3 0 5 C-4.75 4.25 -4.75 4.25 -7 2 C-4 0 -4 0 0 0 Z " transform="translate(485,585)" style="fill: #DBE3E8;"/><path d="M0 0 C1.32 0 2.64 0 4 0 C4 2.31 4 4.62 4 7 C2.35 6.01 0.7 5.02 -1 4 C-0.67 2.68 -0.34 1.36 0 0 Z " transform="translate(506,557)" style="fill: #EDF2F5;"/><path d="M0 0 C0.66 0 1.32 0 2 0 C2 3.63 2 7.26 2 11 C0.68 10.67 -0.64 10.34 -2 10 C-1.34 9.67 -0.68 9.34 0 9 C0 6.03 0 3.06 0 0 Z " transform="translate(536,527)" style="fill: #E4E9EA;"/><path d="M0 0 C0.33 0 0.66 0 1 0 C1.33 4.62 1.66 9.24 2 14 C0.35 14.66 -1.3 15.32 -3 16 C-2.68289063 15.29488281 -2.36578125 14.58976563 -2.0390625 13.86328125 C-0.95461714 10.87494121 -0.6035641 8.34930342 -0.375 5.1875 C-0.26285156 3.72376953 -0.26285156 3.72376953 -0.1484375 2.23046875 C-0.09945313 1.49441406 -0.05046875 0.75835938 0 0 Z " transform="translate(475,533)" style="fill: #5D839C;"/><path d="M0 0 C2.03833424 1.2739589 4.03852126 2.61061923 6 4 C6 4.66 6 5.32 6 6 C6.66 6.33 7.32 6.66 8 7 C5.69 7 3.38 7 1 7 C0.67 4.69 0.34 2.38 0 0 Z " transform="translate(512,464)" style="fill: #F8F9FB;"/><path d="M0 0 C0.33 0 0.66 0 1 0 C2.3511254 6.26430868 2.3511254 6.26430868 0.6875 9.75 C0.130625 10.4925 -0.42625 11.235 -1 12 C-1.66 12.99 -2.32 13.98 -3 15 C-2.35812082 9.86496656 -1.31727753 5.0056546 0 0 Z " transform="translate(768,383)" style="fill: #CDDAE4;"/><path d="M0 0 C0 5.28 0 10.56 0 16 C-0.33 16 -0.66 16 -1 16 C-1 12.04 -1 8.08 -1 4 C-1.66 4 -2.32 4 -3 4 C-3 3.01 -3 2.02 -3 1 C-1 0 -1 0 0 0 Z " transform="translate(485,522)" style="fill: #DEE6EB;"/><path d="M0 0 C4.875 1.75 4.875 1.75 6 4 C3.69 4.66 1.38 5.32 -1 6 C-0.67 4.02 -0.34 2.04 0 0 Z " transform="translate(502,478)" style="fill: #E8EFF3;"/><path d="M0 0 C0 2.31 0 4.62 0 7 C-1.32 6.34 -2.64 5.68 -4 5 C-4 4.01 -4 3.02 -4 2 C-1 0 -1 0 0 0 Z " transform="translate(536,529)" style="fill: #F9FBFA;"/><path d="M0 0 C0.33 0.66 0.66 1.32 1 2 C1.66 2.33 2.32 2.66 3 3 C2.34 3 1.68 3 1 3 C1 3.66 1 4.32 1 5 C5.64586892 4.51515724 5.64586892 4.51515724 10 3 C9.67 4.32 9.34 5.64 9 7 C6.03 6.67 3.06 6.34 0 6 C0 4.02 0 2.04 0 0 Z " transform="translate(512,466)" style="fill: #EDF0F1;"/><path d="M0 0 C0.33 3.3 0.66 6.6 1 10 C-1.09219926 7.21040099 -2.57568513 5.06775511 -4 2 C-1 0 -1 0 0 0 Z " transform="translate(545,463)" style="fill: #E9F0F4;"/><path d="M0 0 C1.32 0.66 2.64 1.32 4 2 C3.34 3.32 2.68 4.64 2 6 C1.01 6 0.02 6 -1 6 C-0.67 4.02 -0.34 2.04 0 0 Z " transform="translate(522,553)" style="fill: #E2E7EA;"/><path d="M0 0 C1.32 0 2.64 0 4 0 C4 1.32 4 2.64 4 4 C2.35 3.67 0.7 3.34 -1 3 C-0.67 2.01 -0.34 1.02 0 0 Z " transform="translate(481,540)" style="fill: #DCE5EA;"/><path d="M0 0 C0.66 0.33 1.32 0.66 2 1 C2 2.32 2 3.64 2 5 C-0.97 4.505 -0.97 4.505 -4 4 C-4 3.34 -4 2.68 -4 2 C-2.125 0.9375 -2.125 0.9375 0 0 Z " transform="translate(483,500)" style="fill: #DAE2E8;"/><path d="M0 0 C4.75 1.875 4.75 1.875 7 3 C7 3.66 7 4.32 7 5 C7.66 5.33 8.32 5.66 9 6 C7.68 6.33 6.36 6.66 5 7 C4.67 6.01 4.34 5.02 4 4 C2.70644173 2.62804426 1.37701298 1.28817344 0 0 Z " transform="translate(501,516)" style="fill: #D1D9DF;"/><path d="M0 0 C0.66 0 1.32 0 2 0 C2 2.31 2 4.62 2 7 C1.67 6.01 1.34 5.02 1 4 C-0.32 4.33 -1.64 4.66 -3 5 C-1.625 2.5 -1.625 2.5 0 0 Z " transform="translate(510,460)" style="fill: #C9D4DB;"/></svg>